<svg xmlns="http://www.w3.org/2000/svg" width="100%" height="auto" viewBox="0 0 1024 1024" version="1.1" preserveAspectRatio="xMidYMid meet" style="max-width: 100%; max-height: 70vh;">
	<path d="M 503.500 20.544 C 500.200 21.355, 495.475 22.465, 493 23.010 C 490.106 23.648, 479.042 23.702, 462 23.160 C 428.236 22.086, 425.688 22.344, 398 29.644 C 394.975 30.441, 390.925 31.475, 389 31.941 C 387.075 32.407, 379.200 35.982, 371.500 39.885 C 363.800 43.789, 356.860 46.986, 356.079 46.991 C 355.297 46.996, 353.910 47.676, 352.997 48.503 C 352.083 49.329, 348.795 50.475, 345.690 51.050 C 338.930 52.299, 331.550 55.410, 327.673 58.643 C 326.119 59.939, 324.343 61, 323.727 61 C 322.531 61, 315.808 65.269, 312.500 68.128 C 311.058 69.375, 308.019 70.005, 301.610 70.386 C 292.509 70.928, 291.133 71.522, 286 77.130 C 285.175 78.031, 282.848 79.294, 280.830 79.935 C 278.811 80.577, 276.619 81.754, 275.958 82.551 C 275.296 83.348, 274.011 84, 273.102 84 C 271.071 84, 252.259 93.461, 249.500 95.871 C 248.400 96.831, 244.800 99.383, 241.500 101.542 C 235.700 105.336, 215 125.115, 215 126.863 C 215 127.336, 211.513 130.361, 207.250 133.586 C 197.418 141.024, 192.290 146.019, 191.848 148.589 C 191.506 150.574, 173.747 167, 171.943 167 C 169.923 167, 151.614 185.332, 142.500 196.480 C 140.850 198.498, 138.738 200.913, 137.806 201.846 C 136.875 202.780, 135.684 205.451, 135.160 207.783 C 134.556 210.470, 132.226 214.489, 128.794 218.761 C 125.816 222.467, 121.622 228.366, 119.474 231.869 C 117.327 235.371, 112.974 240.494, 109.803 243.253 C 103.847 248.433, 103.086 249.563, 96.711 262.695 C 86.642 283.435, 85.658 285.816, 83.775 294 C 83.205 296.475, 81.929 299.534, 80.939 300.797 C 79.949 302.060, 78.826 304.535, 78.443 306.297 C 78.061 308.059, 75.780 313.429, 73.374 318.230 C 70.968 323.032, 69 327.557, 69 328.286 C 69 329.015, 67.875 331.136, 66.500 333 C 65.125 334.864, 64 337.648, 64 339.186 C 64 345.260, 58.962 369.549, 53.566 389.485 C 50.316 401.496, 49.984 404.074, 49.145 423.831 C 48.646 435.579, 48.449 446.002, 48.709 446.993 C 48.968 447.985, 48.437 449.930, 47.528 451.317 C 45.418 454.537, 43.248 469.133, 42.596 484.500 C 42.315 491.100, 41.628 498.030, 41.070 499.900 C 39.932 503.706, 41.158 522.153, 42.936 527.993 C 44.404 532.814, 44.267 538.728, 42.552 544.568 C 40.461 551.687, 40.981 576.264, 43.316 580.700 C 44.550 583.046, 45 586.424, 45 593.351 C 45 601.323, 45.390 603.638, 47.490 608.151 C 48.860 611.093, 49.985 615.215, 49.990 617.312 C 49.999 620.720, 52.361 633.137, 55.199 644.695 C 55.902 647.558, 57.594 650.169, 60.530 652.920 C 63.143 655.370, 65.101 658.235, 65.521 660.226 C 65.901 662.026, 67.461 665.750, 68.988 668.500 C 70.515 671.250, 72.310 675.975, 72.976 679 C 73.643 682.025, 75.007 686.750, 76.007 689.500 C 77.006 692.250, 78.114 696.210, 78.467 698.300 C 78.820 700.390, 80.210 704.169, 81.555 706.699 C 82.900 709.228, 84 711.882, 84 712.596 C 84 713.310, 85.125 716.010, 86.500 718.596 C 87.875 721.182, 89 723.851, 89 724.526 C 89 725.202, 89.646 726.291, 90.436 726.947 C 91.225 727.602, 92.174 729.570, 92.544 731.319 C 92.913 733.069, 93.980 735.400, 94.914 736.500 C 95.848 737.600, 98.086 741.425, 99.886 745 C 101.687 748.575, 103.721 751.950, 104.407 752.500 C 105.094 753.050, 107.210 755.543, 109.109 758.040 C 111.009 760.537, 114.733 764.720, 117.385 767.334 C 121.791 771.678, 122.151 772.383, 121.560 775.530 C 120.746 779.872, 121.794 782.018, 128.250 789.226 C 129.763 790.915, 131 792.824, 131 793.468 C 131 794.112, 132.125 795.618, 133.500 796.813 C 134.875 798.009, 136 799.610, 136 800.371 C 136 801.132, 136.672 802.313, 137.493 802.994 C 138.314 803.675, 139.454 805.972, 140.026 808.097 C 141.842 814.839, 145.120 819.003, 161 834.739 C 169.525 843.186, 177.542 851.170, 178.817 852.482 C 187.937 861.872, 191.627 865.410, 199.441 872.262 C 206.128 878.125, 209.229 880.173, 212.120 880.635 C 214.224 880.972, 217.396 882.316, 219.167 883.624 C 220.939 884.931, 222.800 886, 223.303 886 C 223.806 886, 225.182 886.867, 226.359 887.926 C 251.062 910.149, 252.091 910.881, 279.900 926 C 281.418 926.825, 284.711 929.201, 287.219 931.280 C 293.123 936.174, 300.702 939.991, 304.527 939.996 C 306.193 939.998, 308.621 940.747, 309.925 941.660 C 311.228 942.573, 315.941 945.203, 320.397 947.504 C 324.854 949.806, 329.850 952.431, 331.500 953.338 C 333.150 954.245, 335.077 954.990, 335.781 954.994 C 336.486 954.997, 337.317 955.663, 337.628 956.473 C 337.939 957.283, 339.837 958.238, 341.847 958.594 C 343.856 958.951, 346.850 960.037, 348.500 961.006 C 350.150 961.976, 354.042 963.073, 357.149 963.444 C 360.682 963.866, 363.420 964.806, 364.459 965.955 C 365.373 966.965, 368.137 968.093, 370.602 968.463 C 373.067 968.833, 376.977 969.995, 379.292 971.046 C 381.606 972.096, 384.755 972.966, 386.290 972.978 C 387.824 972.990, 390.844 973.900, 393 975 C 395.156 976.100, 397.750 977, 398.764 977 C 399.778 977, 402.833 978.090, 405.554 979.421 C 412.031 982.592, 423.932 986.049, 431.713 987.021 C 435.562 987.502, 438.943 988.597, 440.598 989.898 C 442.766 991.604, 444.665 992, 450.675 992 C 456.523 992, 458.652 992.423, 460.798 994.009 C 463.334 995.883, 465.070 996.019, 486.838 996.040 C 509.276 996.063, 510.299 995.979, 513.789 993.821 C 517.237 991.691, 518.487 991.574, 538.958 991.470 C 561.309 991.356, 568.712 990.750, 575.500 988.477 C 577.700 987.741, 584.900 986.909, 591.500 986.629 C 603.581 986.115, 619.606 982.884, 625.674 979.738 C 629.019 978.003, 636.187 975.429, 644.500 972.978 C 647.800 972.004, 651.850 970.489, 653.500 969.610 C 655.150 968.731, 657.724 968.010, 659.220 968.006 C 660.717 968.003, 664.379 966.885, 667.358 965.522 C 670.338 964.159, 675.414 962.739, 678.638 962.366 C 681.862 961.993, 685.400 961.137, 686.500 960.463 C 687.600 959.789, 690.846 958.983, 693.712 958.671 C 696.579 958.359, 700.629 957.221, 702.712 956.142 C 704.796 955.063, 710.012 952.491, 714.305 950.425 C 721.019 947.195, 726.905 943.618, 736.394 937 C 737.577 936.175, 740.938 933.587, 743.862 931.250 C 746.787 928.913, 749.619 927, 750.157 927 C 750.694 927, 752.608 925.875, 754.411 924.500 C 756.214 923.125, 758.027 922, 758.439 922 C 759.895 922, 777.568 906.704, 782.830 900.890 C 785.761 897.650, 788.553 895, 789.034 895 C 789.515 895, 792.919 892.750, 796.597 890 C 800.276 887.250, 803.652 885, 804.099 885 C 804.974 885, 810.845 881.261, 815.158 877.958 C 819.449 874.670, 842.032 852.132, 848.994 844.188 C 852.518 840.166, 857.674 835.253, 860.451 833.271 C 863.228 831.288, 867.525 827.620, 870 825.120 C 875.866 819.193, 894.734 796.429, 897.245 792.250 C 898.319 790.463, 899.614 789, 900.124 789 C 900.633 789, 901.480 787.869, 902.005 786.486 C 902.531 785.103, 903.810 782.740, 904.846 781.236 C 914.334 767.463, 920.791 756.452, 920.919 753.827 C 920.963 752.906, 922.052 750.881, 923.338 749.327 C 925.707 746.463, 930.149 737.577, 931.499 733 C 931.905 731.625, 932.805 729.825, 933.500 729 C 934.195 728.175, 935.101 726.375, 935.513 725 C 935.925 723.625, 937.103 721.306, 938.131 719.846 C 939.159 718.386, 940 716.734, 940 716.175 C 940 714.544, 946.697 702.210, 952.585 693 C 955.573 688.325, 958.516 683.375, 959.123 682 C 959.731 680.625, 960.623 678.600, 961.107 677.500 C 961.590 676.400, 962.362 674.825, 962.822 674 C 969.472 662.072, 971.147 654.549, 970.359 640.142 C 969.897 631.690, 970.114 628.574, 971.413 625 C 972.344 622.440, 973.447 614.681, 973.973 607 C 974.481 599.575, 975.589 591.250, 976.436 588.500 C 977.283 585.750, 978.265 579.900, 978.618 575.500 C 979.035 570.312, 980.094 565.708, 981.630 562.404 C 982.934 559.600, 984 556.428, 984 555.354 C 984 554.279, 984.377 552.972, 984.839 552.450 C 986.132 550.985, 987.996 538.996, 988.036 531.885 C 988.055 528.373, 988.750 522.800, 989.579 519.500 C 991.980 509.942, 992.613 474.947, 990.605 462.761 C 989.722 457.404, 989 449.929, 989 446.148 C 989 440.017, 988.676 438.868, 986 435.500 C 984.025 433.015, 983 430.589, 983 428.400 C 983 426.571, 982.100 422.791, 981 420 C 979.900 417.209, 978.996 413.930, 978.990 412.713 C 978.985 411.496, 977.860 408.093, 976.490 405.151 C 975.121 402.209, 974 398.476, 974 396.855 C 974 393.136, 969.637 379.082, 966.434 372.486 C 965.095 369.728, 964 366.714, 964 365.789 C 964 364.863, 962.875 361.990, 961.500 359.404 C 960.125 356.818, 959 353.135, 959 351.219 C 959 349.303, 958.158 346.333, 957.128 344.618 C 955.251 341.491, 953.822 332.505, 953.491 321.740 C 953.394 318.573, 953.131 315.821, 952.907 315.625 C 952.683 315.429, 950.549 314.054, 948.164 312.568 C 945.002 310.598, 943.305 308.599, 941.892 305.183 C 940.827 302.608, 939.066 298.836, 937.978 296.802 C 936.890 294.768, 936 292.447, 936 291.644 C 936 290.269, 933.272 284.162, 928.924 275.802 C 927.866 273.768, 927 271.514, 927 270.794 C 927 270.074, 925.875 267.371, 924.500 264.788 C 923.125 262.205, 922 259.508, 921.999 258.796 C 921.998 256.687, 916.457 245.616, 914.658 244.128 C 913.746 243.373, 913 241.777, 913 240.582 C 913 239.386, 910.918 235.054, 908.373 230.954 C 905.828 226.854, 903.241 222.335, 902.623 220.910 C 900.854 216.831, 895.265 211.009, 891.682 209.511 C 889.881 208.759, 886.252 205.749, 883.618 202.822 C 880.983 199.895, 876.856 195.475, 874.447 193 C 871.276 189.742, 869.783 187.201, 869.039 183.792 C 868.158 179.761, 866.630 177.675, 858.417 169.292 C 853.141 163.906, 846.041 156.506, 842.639 152.847 C 839.237 149.188, 832.189 142.430, 826.977 137.830 C 821.765 133.230, 813.900 125.842, 809.500 121.412 C 800.266 112.114, 795.058 108, 792.524 108 C 791.540 108, 789.333 107.153, 787.618 106.118 C 785.903 105.083, 782.394 103.935, 779.820 103.567 C 777.247 103.199, 774.097 102.107, 772.820 101.139 C 771.544 100.171, 767.978 98.168, 764.896 96.688 C 761.814 95.207, 757.881 92.647, 756.155 90.998 C 754.430 89.349, 752.141 88, 751.068 88 C 749.996 88, 748.872 87.602, 748.572 87.116 C 748.271 86.630, 746.107 85.277, 743.763 84.110 C 741.418 82.943, 738.825 81.541, 738 80.994 C 737.175 80.446, 735.275 79.565, 733.778 79.035 C 732.023 78.413, 730.814 77.081, 730.374 75.285 C 729.537 71.868, 728.382 71.035, 724.446 71.015 C 722.767 71.007, 719.167 69.899, 716.446 68.553 C 713.726 67.208, 710.375 65.602, 709 64.984 C 707.625 64.366, 704.250 62.553, 701.500 60.955 C 698.750 59.357, 695.375 57.557, 694 56.955 C 692.625 56.353, 689.091 54.205, 686.146 52.180 C 678.747 47.094, 676.777 46.032, 674.718 46.015 C 673.738 46.007, 671.263 45.274, 669.218 44.388 C 667.173 43.501, 661.809 42.416, 657.298 41.977 C 652.786 41.539, 646.487 40.203, 643.299 39.011 C 640.111 37.818, 634.352 36.593, 630.501 36.289 C 626.484 35.971, 620.945 34.677, 617.505 33.252 C 612.365 31.122, 610.440 30.841, 604.005 31.276 C 597.758 31.698, 595.966 31.459, 593.315 29.850 C 590.985 28.436, 587.762 27.816, 581.315 27.543 C 575.809 27.309, 570.283 26.386, 566.593 25.084 C 563.345 23.938, 559.745 22.997, 558.593 22.993 C 557.442 22.990, 555.292 22.190, 553.816 21.216 C 551.490 19.683, 548.349 19.421, 530.316 19.258 C 514.817 19.118, 507.967 19.446, 503.500 20.544 M 475 56.409 C 464.109 57.552, 463.148 57.841, 456.855 61.854 C 453.200 64.185, 448.475 66.335, 446.355 66.633 C 444.235 66.930, 440.803 67.810, 438.730 68.587 C 433.562 70.524, 431.416 70.367, 427.943 67.800 C 424.517 65.267, 418.335 64.845, 416.964 67.050 C 416.469 67.847, 416.320 70.116, 416.634 72.092 C 417.185 75.561, 417.048 75.757, 412.613 77.842 C 410.088 79.029, 407.673 80, 407.246 80 C 406.819 80, 404.902 80.832, 402.985 81.848 C 401.068 82.865, 396.864 84, 393.643 84.370 C 387.299 85.099, 378.427 88.827, 374.335 92.483 C 369.126 97.138, 367.998 97.960, 364.092 99.953 C 360.924 101.569, 359.550 101.780, 357.430 100.973 C 355.083 100.081, 354.836 99.572, 355.394 96.781 C 356.660 90.449, 358.015 89.526, 370.619 86.412 C 378.773 84.397, 383.098 82.807, 384.656 81.250 C 386.235 79.673, 388.096 79, 390.878 79 C 393.586 79, 395.745 78.249, 397.673 76.637 C 399.228 75.337, 401.512 73.957, 402.750 73.569 C 405.819 72.609, 405.577 71.286, 402.196 70.543 C 398.064 69.636, 380.083 71.595, 375.782 73.421 C 373.737 74.290, 370.664 75, 368.952 75 C 366.085 75, 359.808 77.732, 335.500 89.561 C 330.550 91.970, 322.317 95.738, 317.205 97.934 C 305.554 102.940, 302 105.412, 302 108.509 C 302 109.814, 302.450 111.160, 303 111.500 C 304.644 112.516, 304.136 115.567, 302 117.500 C 299.236 120.001, 299.458 123.599, 302.500 125.592 C 304.174 126.689, 305 128.148, 305 130.008 C 305 132.932, 303.516 134, 299.453 134 C 298.094 134, 296.611 134.859, 296 136 C 294.722 138.388, 291.460 138.641, 290.607 136.418 C 290.273 135.548, 290 133.523, 290 131.918 C 290 128.565, 289.363 128.357, 286.095 130.646 C 283.810 132.246, 283.655 132.185, 280.501 128.428 L 277.257 124.564 273.378 127.311 C 264.526 133.579, 262.246 135.382, 255.684 141.297 C 251.901 144.709, 248.268 147.725, 247.612 148 C 243.368 149.779, 235.790 156.789, 219 174.466 C 214.800 178.889, 210.707 182.107, 207.431 183.562 C 203.725 185.209, 199.962 188.400, 193.431 195.435 C 186.007 203.432, 183.875 205.155, 180.796 205.648 C 174.509 206.654, 172.252 211.048, 177.101 212.842 C 178.822 213.478, 178.590 214.088, 174.582 219.446 C 172.154 222.692, 168.474 226.371, 166.404 227.620 C 164.334 228.869, 162.216 230.703, 161.697 231.695 C 159.572 235.758, 152.571 246, 151.919 246 C 151.533 246, 150.497 247.800, 149.617 250 C 148.736 252.200, 147.617 254, 147.129 254 C 146.642 254, 145.700 255.310, 145.037 256.911 C 144.374 258.512, 140.642 263.125, 136.744 267.161 C 131.112 272.993, 128.964 276.143, 126.282 282.500 C 124.426 286.900, 122.486 292.657, 121.971 295.294 C 121.456 297.930, 119.969 301.530, 118.665 303.294 C 115.979 306.929, 115.387 308.338, 113.388 315.873 C 112.603 318.828, 111.011 322.580, 109.849 324.212 C 108.409 326.234, 107.644 329.035, 107.446 333.011 C 107.232 337.318, 106.612 339.388, 105.078 340.922 C 103.285 342.715, 103 344.222, 103 351.918 C 103 362.409, 102.646 363.615, 99.014 365.493 C 95.392 367.366, 93.392 371.859, 92.109 381 C 90.581 391.888, 88.194 400.165, 85.869 402.640 C 82.268 406.472, 82.093 418, 85.636 418 C 86.794 418, 87.074 417.389, 86.652 415.777 C 85.918 412.971, 89.427 409, 92.639 409 C 96.896 409, 98.321 415.594, 95.516 422.308 C 94.533 424.660, 93.845 431.034, 93.479 441.180 C 92.680 463.311, 92.246 465.103, 88.571 461.429 C 86.260 459.117, 86.464 443.242, 88.896 436.201 L 90.726 430.902 86.121 431.201 C 80.235 431.583, 79.509 433.023, 77.967 447.363 C 77.169 454.785, 76.160 459.309, 74.783 461.643 C 72.916 464.808, 72.857 465.591, 73.988 472.280 C 74.660 476.251, 75.145 481.277, 75.066 483.449 C 74.987 485.621, 75.416 488.591, 76.020 490.048 C 76.938 492.265, 76.687 493.607, 74.482 498.263 C 73.033 501.324, 70.982 504.612, 69.924 505.569 C 67.281 507.960, 67.499 510.767, 71.040 519.949 C 73.662 526.746, 74.514 527.984, 77.225 528.929 C 84.240 531.374, 85.693 535.199, 81.500 540.182 C 79.462 542.604, 79 544.226, 79 548.955 C 79 552.145, 79.675 556.371, 80.500 558.346 C 81.457 560.636, 82 565.199, 82 570.948 C 82 576.347, 82.574 581.471, 83.432 583.730 C 84.220 585.803, 85.354 589.925, 85.952 592.890 C 86.550 595.854, 87.683 599.679, 88.470 601.390 C 93.749 612.862, 95.429 623.112, 93.052 629.363 C 92.399 631.082, 92.516 633.043, 93.431 635.678 C 96.726 645.165, 97.275 647.801, 97.110 653.319 C 96.964 658.168, 97.510 660.375, 100.210 665.852 C 103.026 671.567, 103.487 673.553, 103.493 680 C 103.501 688.469, 104.112 690, 107.486 690 C 111.329 690, 114.064 694.433, 113.907 700.411 C 113.829 703.413, 114.433 706.730, 115.381 708.500 C 116.265 710.150, 116.990 711.975, 116.994 712.556 C 116.997 713.136, 118.125 715.136, 119.500 717 C 120.875 718.864, 122 720.977, 122 721.695 C 122 722.414, 124.251 726.465, 127.002 730.698 C 129.753 734.931, 132.924 740.852, 134.048 743.857 C 135.172 746.862, 137.196 750.633, 138.546 752.237 C 139.896 753.841, 141.015 756.131, 141.034 757.327 C 141.054 758.577, 144.705 763.746, 149.632 769.500 C 154.341 775, 158.990 781.306, 159.961 783.514 C 160.932 785.722, 162.508 788.177, 163.462 788.969 C 164.417 789.761, 167.243 793.067, 169.743 796.316 C 172.250 799.574, 175.716 802.819, 177.474 803.553 C 179.226 804.285, 181.241 805.585, 181.952 806.442 C 182.663 807.299, 183.795 808, 184.467 808 C 185.140 808, 186.481 808.874, 187.449 809.943 C 189.683 812.412, 194.632 813.550, 196.477 812.019 C 197.244 811.383, 198.158 809.555, 198.509 807.958 C 199.177 804.919, 204.148 800, 206.553 800 C 209.085 800, 214.121 803.714, 216.664 807.457 C 219.063 810.987, 219.100 811.269, 217.582 814.469 C 216.712 816.302, 216 818.344, 216 819.007 C 216 819.669, 214.875 821.548, 213.500 823.182 C 212.125 824.816, 211 826.767, 211 827.516 C 211 829.660, 217.260 841.281, 219.750 843.760 C 221.028 845.032, 222 847.225, 222 848.836 C 222 851.052, 223.095 852.529, 227.003 855.586 C 229.754 857.739, 232.973 860.288, 234.156 861.250 C 235.338 862.213, 236.882 863, 237.586 863 C 238.289 863, 239.144 863.877, 239.484 864.949 C 239.824 866.021, 240.867 867.143, 241.801 867.442 C 242.736 867.742, 244.400 869.672, 245.500 871.732 C 246.600 873.791, 248.175 875.564, 249 875.672 C 256.371 876.631, 258.623 877.475, 261.881 880.500 C 269.671 887.734, 272.862 890, 275.260 890 C 276.632 890, 278.347 890.714, 279.071 891.586 C 279.795 892.458, 282.320 894.080, 284.683 895.191 C 287.045 896.301, 290.646 898.738, 292.684 900.605 C 294.723 902.472, 296.730 904, 297.145 904 C 298.163 904, 306.797 909.863, 307.533 911.053 C 308.592 912.767, 312.894 912.066, 314 910 C 315.473 907.248, 321 907.182, 321 909.917 C 321 910.971, 319.762 912.743, 318.250 913.856 C 315.803 915.656, 315.665 916.045, 317 917.392 C 317.825 918.224, 321.033 919.300, 324.128 919.782 C 328.289 920.430, 331.679 921.934, 337.128 925.549 C 343.449 929.742, 345.213 930.443, 349.500 930.469 C 354.639 930.501, 357.931 932.027, 363.196 936.818 C 365.206 938.646, 366.607 939.129, 368.696 938.713 C 370.265 938.401, 372.601 938.766, 374 939.542 C 377.627 941.554, 378.882 941.317, 379.593 938.487 C 380.765 933.816, 386.078 933.235, 389.913 937.359 C 391.008 938.537, 393.501 941.107, 395.452 943.071 C 397.403 945.035, 399 947.164, 399 947.802 C 399 948.440, 400.238 949.261, 401.750 949.627 C 403.262 949.992, 406.075 951.084, 408 952.052 C 412.876 954.504, 418.530 955.816, 433 957.854 C 439.875 958.823, 446.625 960.332, 448 961.208 C 450.079 962.532, 455.136 962.882, 478 963.282 C 500.956 963.683, 506.243 964.051, 510 965.505 C 516.913 968.183, 551.062 968.218, 559.500 965.556 C 562.800 964.515, 569.739 963.402, 574.920 963.082 C 584.814 962.471, 587.098 961.230, 581.925 959.278 C 577.801 957.721, 578.198 954.500, 582.514 954.500 C 584.837 954.500, 585.570 954.993, 585.815 956.719 C 586.123 958.879, 586.387 958.924, 595.815 958.405 C 601.142 958.112, 608.200 957.036, 611.500 956.015 C 614.800 954.994, 619.525 953.865, 622 953.507 C 630.821 952.231, 648.676 944.505, 651.966 940.540 C 655.114 936.747, 647.598 935.678, 641.206 939.010 C 639.086 940.115, 635.584 941.127, 633.425 941.260 C 630.087 941.464, 629.500 941.201, 629.500 939.500 C 629.500 938.224, 630.734 936.884, 632.912 935.797 C 634.789 934.860, 636.664 933.544, 637.078 932.873 C 637.493 932.202, 640.566 931.330, 643.907 930.936 C 648.240 930.426, 651.460 929.272, 655.134 926.914 C 658.860 924.523, 661.484 923.593, 664.614 923.554 C 669.546 923.492, 670.964 925.222, 666.613 925.990 C 664.801 926.310, 663.412 927.350, 662.883 928.782 C 662.171 930.710, 662.464 931.226, 664.768 932.102 C 670.805 934.397, 692.107 929.298, 696.604 924.481 C 697.762 923.242, 699.787 921.904, 701.104 921.510 C 702.422 921.115, 704.400 920.238, 705.500 919.561 C 706.600 918.885, 711.550 916.874, 716.500 915.094 C 721.450 913.314, 726.175 911.284, 727 910.583 C 727.825 909.882, 730.525 908.345, 733 907.169 C 737.024 905.256, 751.150 894.558, 767.231 881.245 C 772.859 876.586, 772.963 876.405, 772.981 871.285 C 772.996 867.105, 773.397 865.858, 775 865 C 776.131 864.395, 777 862.906, 777 861.573 C 777 859.947, 777.714 859.038, 779.303 858.639 C 780.570 858.321, 782.932 856.654, 784.553 854.936 C 792.034 847.003, 798.621 841.215, 803.830 838 C 806.949 836.075, 811.975 832.185, 815 829.356 C 821.513 823.264, 829.810 816.213, 833.415 813.705 C 836.029 811.887, 842.411 802.681, 844.054 798.357 C 844.547 797.061, 845.403 796, 845.956 796 C 846.509 796, 847.240 794.893, 847.579 793.541 C 847.919 792.189, 848.843 790.545, 849.635 789.888 C 850.426 789.232, 852.674 785.831, 854.631 782.332 C 856.588 778.832, 859.159 775.473, 860.345 774.868 C 862.939 773.542, 871 765.912, 871 764.782 C 871 764.340, 872.575 761.739, 874.500 759 C 876.425 756.261, 878 753.576, 878 753.033 C 878 752.490, 879.097 751.328, 880.437 750.450 C 881.777 749.571, 883.183 747.424, 883.561 745.676 C 884.168 742.871, 886.585 737.855, 892.166 727.823 C 893.082 726.176, 895.669 722.649, 897.916 719.985 C 901.370 715.888, 902 714.448, 902 710.647 C 902 707.346, 902.646 705.386, 904.433 703.261 C 906.023 701.373, 906.977 698.831, 907.183 695.935 C 907.436 692.393, 907.973 691.299, 909.848 690.500 C 911.202 689.923, 913.430 687.068, 915.110 683.755 C 917.104 679.824, 919.283 677.215, 922.012 675.493 C 926.110 672.906, 926.753 671.276, 924.983 667.969 C 924.133 666.380, 924.461 665.813, 926.983 664.509 C 929.028 663.451, 930 662.199, 930 660.620 C 930 659.340, 931.195 657.003, 932.656 655.426 C 934.888 653.018, 935.362 651.481, 935.631 645.796 C 935.872 640.700, 936.552 638.102, 938.386 635.266 C 939.725 633.194, 941.139 629.475, 941.527 627 C 941.915 624.525, 942.668 621.671, 943.200 620.659 C 943.733 619.646, 944.559 614.696, 945.037 609.659 C 945.515 604.621, 946.657 598.475, 947.574 596 C 948.682 593.010, 949.522 586.130, 950.077 575.500 C 950.827 561.130, 950.713 558.761, 948.958 552.244 C 947.020 545.053, 947.020 544.955, 948.949 541.357 C 950.227 538.972, 950.695 536.724, 950.312 534.809 C 949.854 532.520, 950.315 531.281, 952.455 529.047 L 955.182 526.201 954.487 515.351 C 953.840 505.256, 953.938 504.315, 955.896 501.842 C 958.227 498.898, 958.562 495.918, 956.908 492.828 C 956.308 491.706, 955.651 488.248, 955.449 485.144 C 954.537 471.128, 953.581 464.334, 952.229 462.250 C 950.939 460.260, 950.957 459.715, 952.385 457.535 C 954.821 453.818, 954.587 443.016, 952 439.727 C 950.599 437.946, 950 435.670, 950 432.127 C 950 427.934, 949.487 426.486, 947 423.653 C 945.222 421.628, 944 419.116, 944 417.486 C 944 415.974, 943.042 413.186, 941.871 411.292 C 940.109 408.440, 939.851 406.924, 940.374 402.476 C 940.763 399.168, 940.558 396.125, 939.842 394.553 C 938.936 392.565, 938.980 391.090, 940.041 387.877 C 941.297 384.070, 941.232 383.458, 939.205 379.936 C 937.997 377.836, 936.600 373.233, 936.100 369.705 C 935.180 363.205, 931.362 353.547, 928.047 349.332 C 927.048 348.062, 925.936 345.056, 925.575 342.651 C 925.214 340.247, 923.812 336.779, 922.460 334.945 C 921.107 333.112, 920 330.754, 920 329.707 C 920 326.649, 917.161 321.512, 912.888 316.840 C 909.129 312.730, 904.057 303.970, 902.467 298.842 C 902.068 297.554, 898.649 292.814, 894.870 288.310 C 891.092 283.805, 888 279.517, 888 278.782 C 888 278.047, 887.238 276.357, 886.306 275.027 C 885.374 273.696, 884.288 270.220, 883.892 267.300 C 883.419 263.816, 882.283 260.937, 880.586 258.920 C 879.152 257.215, 878 254.599, 878 253.046 C 878 251.505, 877.395 249.742, 876.654 249.128 C 875.914 248.514, 874.496 246.209, 873.503 244.006 C 872.244 241.215, 871.072 240, 869.640 240 C 867.291 240, 857.684 230.449, 858.268 228.695 C 858.477 228.068, 859.738 227.298, 861.069 226.984 C 864.721 226.122, 864.617 223.235, 860.784 219.139 C 856.432 214.489, 852 208.426, 852 207.123 C 852 206.568, 851.171 205.525, 850.159 204.807 C 849.146 204.088, 847.783 202.493, 847.130 201.263 C 846.477 200.032, 843.553 197.496, 840.631 195.627 C 837.710 193.759, 832.862 189.332, 829.857 185.790 C 821.431 175.858, 816.757 172, 813.152 172 C 810.943 172, 809.573 171.278, 808.408 169.500 C 807.390 167.946, 805.832 167, 804.292 167 C 802.465 167, 798.959 164.120, 790.969 156.058 C 785.005 150.040, 778.731 144.395, 777.028 143.515 C 771.922 140.874, 759.566 132.231, 757.014 129.515 C 755.703 128.119, 752.801 126.489, 750.565 125.891 C 747.622 125.104, 745.139 123.282, 741.569 119.289 C 738.857 116.256, 734.807 112.918, 732.569 111.872 C 726.194 108.892, 714.345 101.366, 711.179 98.286 C 710.452 97.578, 709.191 97, 708.377 97 C 707.562 97, 705.232 96.111, 703.198 95.023 C 686.354 86.021, 671.610 79.635, 662.567 77.425 C 657.030 76.072, 650.201 74.246, 647.390 73.368 C 642.633 71.881, 642.098 71.890, 639.640 73.500 C 636.389 75.630, 636.389 75.753, 639.609 79.114 C 641.044 80.612, 641.918 82.324, 641.550 82.919 C 640.463 84.678, 636.450 84.155, 634.500 82 C 633.015 80.359, 631.416 79.999, 625.595 79.994 C 617.118 79.988, 611.946 78.703, 609.495 75.994 C 608.392 74.776, 606.417 74, 604.416 74 C 601.271 74, 598.613 72.340, 597.787 69.861 C 597.526 69.078, 594.988 68.756, 590.195 68.896 L 582.995 69.106 580.845 65.462 C 578.573 61.611, 578.646 61.625, 570.619 63.581 C 568.471 64.105, 567.504 63.865, 566.819 62.642 C 566.144 61.435, 564.467 61, 560.487 61 C 557.206 61, 552.992 60.141, 549.787 58.818 C 544.914 56.807, 542.700 56.627, 521.500 56.516 C 508.850 56.449, 495.800 56.127, 492.500 55.799 C 489.200 55.471, 481.325 55.746, 475 56.409 M 466.228 65.039 C 463.394 66.178, 462.245 68.908, 464.104 70.086 C 466.031 71.306, 474.711 71.225, 477.066 69.965 C 483.454 66.546, 473.612 62.073, 466.228 65.039 M 410 67.583 C 410 68.454, 410.534 68.989, 411.188 68.771 C 413.042 68.153, 413.349 66, 411.583 66 C 410.712 66, 410 66.713, 410 67.583 M 626 68.845 C 626 71.428, 629.157 74, 632.329 74 C 635.705 74, 635.676 73.522, 632.077 69.923 C 628.758 66.604, 626 66.115, 626 68.845 M 561.619 72.433 C 560.178 74.322, 559 76.071, 559 76.320 C 559 76.895, 564.575 78.064, 568.500 78.311 C 570.955 78.466, 571.560 78.073, 571.832 76.152 C 572.215 73.446, 568.555 69, 565.944 69 C 565.006 69, 563.059 70.545, 561.619 72.433 M 681.688 93.646 C 680.147 95.186, 681.040 98, 683.070 98 C 684.625 98, 685.060 97.461, 684.820 95.828 C 684.488 93.573, 682.880 92.453, 681.688 93.646 M 704.667 106.667 C 703.457 107.877, 703.973 110.776, 705.503 111.363 C 706.329 111.680, 709.367 113.704, 712.253 115.862 C 715.139 118.019, 718.960 120.093, 720.744 120.470 C 722.528 120.848, 724.407 121.905, 724.919 122.820 C 725.431 123.735, 726.126 124.207, 726.464 123.870 C 727.927 122.406, 721.903 115.762, 714.867 111.080 C 707.222 105.992, 705.910 105.424, 704.667 106.667 M 313.592 118.500 C 312.607 120.003, 311.008 121, 309.584 121 C 308.280 121, 306.930 121.739, 306.583 122.643 C 305.651 125.074, 306.668 125.518, 310.275 124.251 C 312.049 123.629, 314.724 123.367, 316.221 123.671 C 318.447 124.122, 319.155 123.753, 320.118 121.641 C 322.438 116.548, 316.685 113.779, 313.592 118.500 M 597.278 119.250 C 595.076 122.098, 595.025 123.025, 596.964 124.964 C 601.110 129.110, 606.093 126.006, 604.025 120.565 C 602.961 117.766, 599.020 116.998, 597.278 119.250 M 313.479 134.067 C 313.037 135.460, 313.277 136.566, 314.143 137.124 C 316.461 138.616, 318.500 137.616, 318.500 134.986 C 318.500 131.622, 314.488 130.887, 313.479 134.067 M 497.764 133.974 C 496.259 134.439, 493.367 135.846, 491.336 137.101 C 488.817 138.658, 485.714 139.486, 481.572 139.706 C 468.568 140.397, 466.423 140.665, 464.187 141.880 C 461.676 143.245, 454.806 143.497, 440 142.767 C 429.731 142.261, 425.214 143.429, 422.508 147.292 C 421.535 148.682, 419.414 149.551, 415.793 150.045 C 412.882 150.442, 404.875 152.253, 398 154.070 C 388.502 156.581, 384.852 158.018, 382.803 160.057 C 379.989 162.856, 368.207 169, 365.652 169 C 364.841 169, 361.618 169.979, 358.490 171.177 C 354.169 172.830, 352.229 174.262, 350.416 177.134 C 347.905 181.111, 344.700 183.422, 342.695 182.700 C 342.038 182.464, 340.600 182.723, 339.500 183.277 C 336.487 184.795, 326.772 191.120, 324.500 193.044 C 323.400 193.975, 321.186 195.049, 319.579 195.431 C 317.972 195.812, 315.549 196.996, 314.194 198.062 C 312.839 199.128, 311.171 200, 310.488 200 C 309.804 200, 308.695 200.663, 308.022 201.474 C 307.349 202.284, 305.307 203.227, 303.484 203.569 C 301.661 203.911, 299.153 205.273, 297.910 206.595 C 296.668 207.918, 295.070 209, 294.360 209 C 293.650 209, 291.591 210.267, 289.785 211.817 C 287.978 213.366, 284.861 215.622, 282.859 216.831 C 280.856 218.040, 277.492 221.160, 275.383 223.764 C 273.274 226.369, 269.570 230.503, 267.152 232.951 C 264.734 235.399, 262.338 238.601, 261.827 240.065 C 261.312 241.542, 258.795 244.092, 256.175 245.789 C 247.217 251.594, 242.608 256.407, 240.565 262.090 C 239.506 265.033, 237.668 268.874, 236.479 270.626 C 233.426 275.124, 227.445 282, 226.584 282 C 226.186 282, 223.860 283.376, 221.415 285.058 C 216.787 288.243, 211 297.721, 211 302.118 C 211 303.316, 208.979 306.453, 206.500 309.103 C 203.510 312.300, 202 314.803, 202 316.563 C 202 318.019, 200.875 320.548, 199.500 322.182 C 198.125 323.816, 197 325.880, 197 326.769 C 197 327.657, 195.153 331.492, 192.896 335.291 C 189.759 340.573, 188.667 343.581, 188.260 348.068 C 187.902 352.015, 187.118 354.488, 185.864 355.623 C 184.839 356.551, 184 357.932, 184 358.692 C 184 359.453, 181.975 362.043, 179.500 364.448 C 176.261 367.596, 174.997 369.617, 174.991 371.661 C 174.986 373.222, 173.900 376.735, 172.577 379.466 C 170.353 384.059, 170.284 384.648, 171.659 387.307 C 173.747 391.345, 172.611 396.637, 168.265 403.124 C 164.412 408.874, 164.620 407.427, 164.911 426.500 C 164.988 431.603, 163.739 441.596, 162.916 442.450 C 162.412 442.972, 162 446.940, 162 451.266 C 162 455.592, 161.459 460.114, 160.798 461.316 C 160.137 462.517, 159.289 469.800, 158.915 477.500 C 158.541 485.200, 157.645 496.747, 156.925 503.160 C 155.710 513.972, 155.748 515.115, 157.446 518.880 C 159.005 522.339, 159.198 524.687, 158.746 534.720 C 158.406 542.260, 157.636 547.838, 156.607 550.218 C 154.645 554.757, 154.539 559.883, 156.352 562.527 C 157.096 563.612, 158.009 566.460, 158.381 568.855 C 158.753 571.250, 159.769 574.587, 160.640 576.271 C 161.732 578.382, 162.069 580.909, 161.727 584.416 C 161.208 589.742, 163.530 596.205, 166.830 598.618 C 167.937 599.427, 168.446 601.921, 168.646 607.520 C 169.057 618.990, 172.723 633.825, 175.924 636.968 C 178.433 639.431, 182.973 647.487, 182.991 649.508 C 182.996 650.062, 184.178 652.729, 185.618 655.435 C 187.789 659.512, 188.138 661.190, 187.657 665.246 C 186.737 673.020, 187.706 675.809, 192.109 678.055 C 194.986 679.523, 196.586 681.362, 198.493 685.393 C 199.892 688.352, 202.348 692.422, 203.951 694.438 C 205.553 696.454, 207.148 699.399, 207.496 700.983 C 207.844 702.566, 208.739 704.369, 209.486 704.988 C 210.233 705.608, 211.135 707.837, 211.490 709.942 C 211.934 712.571, 213.473 715.134, 216.410 718.134 C 223.170 725.040, 231.726 735.576, 234.216 740.060 C 235.472 742.321, 237.189 745.398, 238.030 746.897 C 238.872 748.395, 242.247 752.037, 245.530 754.989 C 248.814 757.941, 252.175 761.312, 253 762.482 C 255.345 765.805, 258.234 768.370, 262.536 770.948 C 267.936 774.184, 271.042 777.058, 272.100 779.798 C 272.588 781.062, 274.534 782.743, 276.425 783.533 C 280.395 785.192, 281.547 786.661, 281.169 789.586 C 280.790 792.523, 283.407 794.369, 286.947 793.661 C 289.383 793.173, 290.002 793.452, 290.549 795.286 C 291.732 799.254, 302.179 808.915, 308.750 812.119 C 312.187 813.795, 315 815.546, 315 816.010 C 315 817.343, 325.941 822, 329.073 822 C 332.377 822, 343.252 829.245, 347.908 834.547 C 349.831 836.738, 351 839.157, 351 840.945 C 351 842.782, 352.396 845.568, 354.866 848.660 C 362.052 857.655, 363.303 858.426, 371.391 858.834 L 378.654 859.201 384.788 854.097 C 389.351 850.299, 391.233 847.953, 392.137 844.937 C 393.824 839.307, 396.529 838.012, 399.625 841.351 C 400.985 842.818, 403.597 844.169, 405.748 844.518 C 407.812 844.854, 411.300 845.740, 413.500 846.488 C 415.700 847.236, 419.075 848.161, 421 848.544 C 422.925 848.927, 425.788 849.900, 427.363 850.705 C 432.640 853.402, 441.294 855.140, 446.146 854.476 C 449.416 854.029, 451.671 854.295, 453.759 855.375 C 455.391 856.219, 460.158 857.336, 464.353 857.857 C 473.683 859.015, 478.105 861.384, 479.406 865.921 C 480.203 868.700, 480.058 869.485, 478.540 870.595 C 477.537 871.328, 475.317 871.891, 473.608 871.844 C 471.899 871.798, 469.948 871.927, 469.274 872.130 C 468.600 872.334, 467.025 871.297, 465.774 869.827 C 462.730 866.249, 459 867.408, 459 871.933 C 459 875.980, 461.277 877, 470.312 877 C 475.517 877, 478.109 877.426, 478.932 878.418 C 479.579 879.198, 481.127 884.710, 482.371 890.668 C 484.118 899.031, 485.368 902.526, 487.857 906 C 489.629 908.475, 492.021 911.850, 493.172 913.500 C 495.728 917.163, 502.700 921.801, 507.756 923.201 C 509.815 923.771, 514.407 923.967, 517.961 923.637 C 523.077 923.161, 525.363 922.360, 528.941 919.790 C 535.915 914.783, 543.880 904.827, 543.975 901 C 543.996 900.175, 544.691 898.199, 545.520 896.609 C 546.349 895.019, 547.533 890.519, 548.150 886.609 C 548.767 882.699, 549.815 878.912, 550.478 878.194 C 552.319 876.200, 561.830 875.649, 567 877.238 C 572.461 878.916, 578.387 877.925, 581.743 874.772 C 583.708 872.926, 585.281 872.590, 592.276 872.521 C 599.317 872.452, 600.966 872.095, 603.740 870.040 C 605.522 868.719, 607.235 866.836, 607.546 865.854 C 607.858 864.873, 610.983 862.657, 614.492 860.929 C 620.259 858.090, 621.437 857.854, 626.766 858.473 C 632.159 859.099, 632.921 858.938, 635.724 856.578 C 639.233 853.626, 643.130 853.245, 645.128 855.659 C 647.101 858.045, 655.990 861.979, 659.434 861.990 C 663.223 862.003, 670.789 858.329, 673.712 855.057 C 676.539 851.893, 682.951 842.509, 684.986 838.560 C 685.852 836.877, 687.783 835.209, 689.500 834.661 C 691.150 834.134, 693.706 832.699, 695.181 831.474 C 696.656 830.248, 700.031 828.198, 702.681 826.917 C 709.237 823.750, 714.170 820.478, 724.601 812.379 C 727.520 810.113, 734.652 805.924, 740.449 803.072 C 751.379 797.694, 750.654 798.288, 773.301 776.132 C 777.899 771.634, 781.334 767.392, 781.666 765.801 C 782.356 762.494, 784.331 760.637, 790.242 757.734 C 796.206 754.806, 803.788 745.489, 805.506 738.978 C 806.454 735.382, 808.468 732.219, 813.102 727.043 C 816.570 723.169, 819.705 720, 820.068 720 C 821.747 720, 825.830 712.006, 826.379 707.644 C 826.716 704.974, 827.844 701.149, 828.888 699.144 C 829.931 697.140, 831.317 693.533, 831.969 691.128 C 833.168 686.700, 833.914 685.773, 842.231 678.366 C 845.725 675.255, 846.740 673.721, 846.333 672.166 C 846.017 670.955, 846.621 668.936, 847.793 667.291 C 848.893 665.746, 850.334 662.461, 850.994 659.991 C 851.655 657.521, 852.679 654.910, 853.271 654.189 C 853.862 653.468, 854.444 651.218, 854.565 649.189 C 854.934 642.951, 856.740 637.796, 859.430 635.302 C 861.600 633.290, 862.006 632.031, 862.035 627.210 C 862.055 624.069, 862.714 620.375, 863.500 619 C 864.286 617.625, 864.945 614.976, 864.965 613.113 C 864.989 610.818, 866.451 607.524, 869.500 602.895 L 874 596.065 874 586.660 C 874 579.265, 874.550 575.571, 876.573 569.378 C 878.684 562.911, 879.116 559.798, 878.981 552 C 878.709 536.368, 879.861 476.015, 880.466 474.106 C 880.804 473.043, 880.224 471.607, 879.014 470.513 C 876.237 468, 876.402 463.622, 879.347 461.692 C 882.065 459.912, 884.493 454.728, 883.645 452.518 C 883.325 451.683, 881.979 451, 880.654 451 C 876.562 451, 875.630 448.741, 878.038 444.661 C 880.147 441.086, 880.170 440.170, 878.434 429 C 877.468 422.786, 876.637 420.376, 874.884 418.711 C 873.647 417.536, 873 415.539, 873 412.894 C 873 410.139, 872.210 407.831, 870.500 405.589 C 869.125 403.786, 868 401.955, 868 401.520 C 868 401.085, 866.948 399.754, 865.662 398.563 C 863.780 396.818, 863.192 394.944, 862.645 388.948 C 862.176 383.806, 861.325 380.624, 859.894 378.671 C 858.471 376.727, 858.021 375.054, 858.455 373.325 C 858.802 371.941, 858.679 370.289, 858.180 369.654 C 857.682 369.019, 857.012 366.162, 856.691 363.304 C 855.958 356.781, 853.929 352.716, 848.552 347 C 844.142 342.310, 840 335.817, 840 333.592 C 840 332.880, 838.875 330.182, 837.500 327.596 C 836.125 325.010, 835 321.902, 835 320.689 C 835 319.476, 833.875 316.371, 832.500 313.788 C 831.125 311.205, 829.999 308.508, 829.998 307.796 C 829.997 307.083, 827.295 303.800, 823.994 300.500 C 820.693 297.200, 816.665 292.475, 815.043 290 C 813.420 287.525, 810.743 283.603, 809.094 281.285 C 807.445 278.966, 804.909 274.647, 803.460 271.686 C 802.010 268.725, 799.176 264.915, 797.162 263.219 C 789.711 256.946, 787.195 255, 786.533 255 C 784.880 255, 772.719 243.211, 771.312 240.245 C 769.323 236.054, 757.424 225.417, 749 220.299 C 743.615 217.027, 742.345 215.735, 741.596 212.766 L 740.692 209.183 733.596 209.117 C 724.262 209.031, 723.049 209.783, 725.211 214.315 C 726.477 216.970, 727.647 217.899, 730.372 218.410 C 732.310 218.774, 735.804 220.666, 738.137 222.615 C 740.470 224.564, 744.533 227.250, 747.166 228.584 C 749.838 229.938, 752.590 232.241, 753.394 233.794 C 754.185 235.326, 758.927 240.386, 763.930 245.039 C 768.933 249.693, 774.427 255.653, 776.139 258.284 C 777.852 260.916, 782.077 265.641, 785.529 268.784 C 788.980 271.928, 793.225 276.630, 794.962 279.234 C 796.699 281.837, 798.658 284.312, 799.316 284.734 C 801.842 286.352, 805.876 292.828, 806.999 297.069 C 807.645 299.506, 809.251 302.641, 810.569 304.036 C 811.886 305.431, 813.262 308.131, 813.627 310.036 C 814.425 314.214, 816.917 319.116, 820.978 324.500 C 822.637 326.700, 824.941 329.962, 826.096 331.750 C 828.273 335.117, 829.441 335.714, 830.500 334 C 830.840 333.450, 831.802 333, 832.639 333 C 833.910 333, 834.049 334.034, 833.484 339.309 C 832.867 345.067, 833.022 345.875, 835.264 348.559 C 836.961 350.592, 837.876 353.158, 838.225 356.871 C 838.631 361.192, 839.318 362.791, 841.741 365.056 C 843.443 366.646, 845.037 369.384, 845.406 371.349 C 845.765 373.262, 847.689 377.904, 849.682 381.664 C 856.078 393.730, 857 395.853, 857 398.516 C 857 399.953, 857.836 403.238, 858.859 405.815 C 862.887 415.970, 863.455 418.827, 863.665 430 C 863.784 436.325, 863.908 441.803, 863.941 442.173 C 863.973 442.544, 865.090 444.141, 866.421 445.724 C 868.884 448.651, 869.314 451.805, 869.082 465.250 C 868.984 470.934, 867.221 471.524, 863.972 466.960 C 862.209 464.484, 861.708 462.025, 861.275 453.710 C 860.906 446.612, 860.279 442.967, 859.219 441.752 C 858.268 440.663, 857.407 436.710, 856.931 431.252 C 855.300 412.553, 850.283 392.326, 846.569 389.475 C 845.835 388.912, 843.882 384.574, 842.230 379.837 C 840.577 375.099, 837.452 368.585, 835.285 365.361 C 833.117 362.138, 829.894 356.350, 828.122 352.500 C 826.350 348.650, 824.287 344.375, 823.538 343 C 822.789 341.625, 820.527 337.350, 818.512 333.500 C 816.497 329.650, 814.055 325.600, 813.086 324.500 C 812.118 323.400, 810.310 320.475, 809.070 318 C 807.830 315.525, 805.994 312.600, 804.991 311.500 C 803.987 310.400, 801.101 305.505, 798.576 300.622 C 795.607 294.879, 790.949 288.256, 785.388 281.872 C 780.660 276.442, 776.488 272, 776.117 272 C 775.308 272, 762.272 258.769, 751.485 247 C 737.466 231.704, 733.780 228.065, 731.625 227.391 C 730.456 227.025, 727.515 225.366, 725.088 223.704 C 722.662 222.041, 718.739 220.319, 716.372 219.877 C 711.469 218.961, 705.972 215.652, 697.922 208.769 C 694.855 206.146, 691.647 204, 690.795 204 C 689.942 204, 688.657 203.292, 687.939 202.427 C 687.221 201.562, 683.778 199.559, 680.287 197.976 C 676.797 196.394, 672.808 194.208, 671.423 193.118 C 670.039 192.029, 667.472 190.823, 665.720 190.438 C 663.967 190.054, 659.668 187.997, 656.165 185.869 C 652.662 183.741, 649.480 182, 649.094 182 C 648.707 182, 646.263 180.650, 643.661 179 C 641.059 177.350, 638.228 176, 637.370 176 C 636.511 176, 634.614 175.157, 633.154 174.126 C 631.694 173.095, 628.104 171.742, 625.176 171.120 C 618.630 169.730, 612.777 165.563, 613.201 162.594 C 613.440 160.917, 614.097 160.561, 616.500 160.804 C 618.150 160.972, 622.104 161.350, 625.286 161.645 C 629.676 162.052, 633.173 163.335, 639.786 166.964 C 644.579 169.595, 649.559 172.074, 650.853 172.474 C 652.147 172.873, 654.798 174.280, 656.743 175.600 C 658.688 176.920, 661.061 178, 662.017 178 C 662.973 178, 664.315 178.675, 665 179.500 C 665.685 180.325, 666.830 181, 667.546 181 C 668.261 181, 670.119 182.041, 671.673 183.314 C 674.980 186.020, 685.514 192, 686.975 192 C 687.528 192, 690.810 193.913, 694.268 196.250 C 697.726 198.588, 702.567 201.588, 705.027 202.918 C 707.487 204.249, 710.573 206.161, 711.885 207.168 C 713.240 208.209, 715.922 209, 718.095 209 C 721.684 209, 721.993 208.756, 723.105 205.045 C 724.770 199.486, 722.767 196.623, 716.089 195.021 C 711.898 194.016, 710.786 193.245, 709.289 190.308 C 707.877 187.535, 706.237 186.292, 701.500 184.403 C 698.200 183.086, 694.797 182.007, 693.937 182.005 C 693.077 182.002, 691.081 180.650, 689.500 179 C 687.919 177.350, 685.812 176, 684.818 176 C 683.824 176, 680.207 173.741, 676.782 170.981 C 670.002 165.518, 663.549 162, 660.307 162 C 659.173 162, 657.634 161.264, 656.887 160.363 C 654.844 157.902, 647.529 155.082, 640.112 153.896 C 636.475 153.314, 631.222 152.475, 628.437 152.031 C 618.302 150.414, 609.045 147.707, 607.387 145.875 C 606.454 144.844, 604.739 144, 603.577 144 C 602.415 144, 599.672 142.763, 597.482 141.251 C 593.353 138.400, 590.740 138.107, 577.500 139.006 C 570.891 139.455, 562.486 137.750, 559.937 135.443 C 558.390 134.043, 556.370 133.601, 551.694 133.637 C 544.121 133.697, 524.108 135.605, 521.874 136.481 C 520.979 136.832, 517.604 136.455, 514.374 135.644 C 505.891 133.514, 500.880 133.010, 497.764 133.974 M 732.250 139.743 C 730.287 140.408, 730.787 145.892, 733.108 149.152 C 735.859 153.015, 740.004 152.814, 741.425 148.748 C 742.196 146.545, 741.986 145.459, 740.376 143.302 C 738.360 140.601, 734.590 138.950, 732.250 139.743 M 282.180 142.250 C 282.390 143.727, 283.187 144.500, 284.500 144.500 C 285.813 144.500, 286.610 143.727, 286.820 142.250 C 287.082 140.404, 286.665 140, 284.500 140 C 282.335 140, 281.918 140.404, 282.180 142.250 M 526.735 148.994 C 523.695 151.385, 521.689 151.536, 520 149.500 C 518.236 147.374, 499.154 147.416, 492.409 149.561 C 485.572 151.734, 462.337 153.916, 458.515 152.743 C 456.175 152.025, 454.268 152.309, 450 154.011 C 437.484 159.002, 436.803 159.151, 429.544 158.498 C 421.178 157.745, 407.720 160.562, 400.812 164.511 C 398.440 165.867, 395.653 166.981, 394.618 166.988 C 393.583 166.995, 391.332 167.868, 389.616 168.928 C 387.901 169.988, 381.998 172.520, 376.498 174.554 C 361.422 180.130, 360.599 180.453, 359.250 181.317 C 357.795 182.249, 357.627 185.861, 358.940 187.938 C 359.722 189.173, 360.673 189.108, 365.675 187.484 C 368.879 186.443, 372.625 184.617, 374 183.425 C 375.441 182.177, 378.545 180.996, 381.328 180.638 C 386.997 179.909, 400.173 173.910, 404.585 170.050 C 407.528 167.475, 408.205 167.344, 419.279 167.192 C 431.347 167.026, 446.248 165.674, 454 164.041 C 456.475 163.519, 463.411 162.595, 469.413 161.987 C 475.415 161.379, 485.369 159.581, 491.532 157.992 C 501.853 155.331, 504.150 155.103, 520.619 155.105 C 544.165 155.109, 568.245 153.784, 568.683 152.460 C 568.872 151.887, 568.458 150.703, 567.763 149.828 C 566.724 148.520, 563.195 148.126, 547.892 147.613 C 530.267 147.021, 529.150 147.094, 526.735 148.994 M 729.250 156.250 C 729.880 158.142, 733 158.411, 733 156.573 C 733 155.646, 732.145 155, 730.917 155 C 729.695 155, 729.005 155.517, 729.250 156.250 M 328.250 162.645 C 325.363 165.655, 323 168.903, 323 169.863 C 323 172.031, 329.021 178, 331.209 178 C 333.207 178, 337.789 172.689, 338.609 169.423 C 338.943 168.091, 338.828 164.863, 338.352 162.251 C 337.145 155.618, 334.907 155.706, 328.250 162.645 M 347.250 162.651 C 345.928 163.196, 345.589 166.766, 346.607 169.418 C 347.556 171.891, 350.908 171.296, 352.217 168.422 C 354.033 164.438, 351.120 161.054, 347.250 162.651 M 776.667 162.667 C 775.428 163.906, 775.989 166.782, 777.590 167.396 C 779.848 168.263, 781 167.265, 781 164.441 C 781 162.741, 780.444 162, 779.167 162 C 778.158 162, 777.033 162.300, 776.667 162.667 M 743.575 164.878 C 743.277 165.362, 741.424 166.520, 739.458 167.453 C 735.190 169.478, 735.403 171.143, 740.075 172.287 C 746.847 173.946, 747.473 173.776, 747.818 170.185 C 748.234 165.857, 745.265 162.144, 743.575 164.878 M 766.238 168.162 C 764.473 169.927, 764.707 175.564, 766.625 177.482 C 770.684 181.541, 775.509 175.930, 772.812 170.285 C 771.356 167.238, 768.186 166.214, 766.238 168.162 M 752.548 178.595 C 746.732 184.411, 747.587 191.993, 753.559 187.559 C 754.627 186.766, 756.518 186.366, 757.763 186.670 C 762.521 187.833, 764.691 182.691, 761 179 C 758.594 176.594, 754.734 176.409, 752.548 178.595 M 805.250 185.731 C 803.229 186.435, 803.815 188.967, 806.250 190.050 C 808.845 191.204, 814.070 194.927, 816.485 197.342 C 817.397 198.254, 818.777 199, 819.552 199 C 820.328 199, 821.256 200.238, 821.615 201.750 C 821.975 203.262, 822.830 205.175, 823.516 206 C 824.202 206.825, 825.072 208.512, 825.449 209.750 C 825.826 210.988, 826.567 212, 827.096 212 C 828.243 212, 835.717 219.990, 842.999 229 C 845.888 232.575, 849.055 236.214, 850.035 237.087 C 851.016 237.959, 851.972 239.755, 852.159 241.076 C 852.587 244.094, 856 245.043, 856 242.145 C 856 241.044, 855.347 239.490, 854.549 238.692 C 853.752 237.894, 852.807 236.081, 852.451 234.662 C 852.095 233.243, 851.173 231.558, 850.402 230.919 C 849.631 230.279, 849 229.197, 849 228.515 C 849 227.833, 847.596 225.526, 845.881 223.388 C 844.165 221.249, 841.707 217.848, 840.418 215.829 C 839.129 213.810, 837.153 211.866, 836.027 211.508 C 834.900 211.151, 833.257 209.428, 832.375 207.679 C 830.007 202.983, 825.922 199, 823.473 199 C 822.148 199, 820.883 198.040, 820.182 196.500 C 819.555 195.125, 818.582 194, 818.020 194 C 817.457 194, 815.310 192.263, 813.248 190.139 C 809.324 186.097, 807.338 185.002, 805.250 185.731 M 483.500 186.645 C 481.850 186.835, 476.900 187.677, 472.500 188.516 C 468.100 189.356, 460 190.713, 454.500 191.532 C 430.804 195.062, 430.836 195.054, 423.500 199.545 C 416.119 204.064, 411.137 206.073, 408.778 205.480 C 405.987 204.780, 395.540 209.784, 393.392 212.851 C 392.255 214.474, 391.265 214.803, 388.922 214.334 C 386.730 213.896, 385.314 214.268, 383.707 215.704 C 382.493 216.788, 379.475 218.700, 377 219.952 C 374.525 221.204, 370.925 223.457, 369 224.959 C 367.075 226.461, 363.250 228.970, 360.500 230.534 C 355.987 233.101, 352.178 235.769, 348.037 239.265 C 345.197 241.664, 339.469 245.554, 337 246.762 C 335.625 247.435, 333.600 248.540, 332.500 249.218 C 324.852 253.933, 317.718 258.049, 313 260.468 C 298.554 267.875, 295.809 270.310, 284.206 286 C 272.729 301.521, 259.342 318.928, 255.619 323.174 C 254.812 324.095, 253.595 325.895, 252.914 327.174 C 252.233 328.453, 250.038 331.750, 248.036 334.500 C 246.034 337.250, 243.571 341.699, 242.563 344.387 C 240.812 349.056, 240.808 349.405, 242.483 352.240 C 245.122 356.708, 244.055 361.659, 239.378 366.637 C 230.985 375.573, 228.239 381.261, 229.515 387.068 C 229.973 389.154, 229.558 390.980, 228.080 393.371 C 224.480 399.195, 225.802 402.153, 231.036 399.985 C 233.193 399.091, 234.118 397.888, 234.593 395.356 C 235.073 392.797, 236.338 391.176, 239.613 388.922 C 242.596 386.870, 244.641 384.411, 246.031 381.205 C 247.152 378.617, 248.587 375.600, 249.219 374.500 C 249.851 373.400, 250.989 371.150, 251.747 369.500 C 252.506 367.850, 253.544 365.825, 254.054 365 C 254.563 364.175, 256.311 360.678, 257.937 357.229 C 259.563 353.780, 261.930 349.511, 263.197 347.742 C 264.464 345.973, 266.305 342.945, 267.288 341.013 C 271.289 333.152, 276.838 324.739, 279.182 322.980 C 280.324 322.122, 282 317.041, 282 314.435 C 282 313.096, 282.337 311.953, 282.750 311.896 C 283.163 311.838, 285.116 311.688, 287.091 311.562 C 292.014 311.248, 295.251 308.663, 300.558 300.805 C 305.762 293.101, 310.794 288.394, 312.259 289.859 C 312.889 290.489, 312.662 291.645, 311.616 293.138 C 310.727 294.407, 310 296.156, 310 297.026 C 310 298.753, 304.345 307.015, 302.283 308.300 C 301.577 308.740, 300.354 310.348, 299.565 311.874 C 297.572 315.728, 293.042 320.404, 289.488 322.277 C 283.984 325.176, 272.014 339.402, 272.004 343.056 C 272.002 343.911, 270.875 346.136, 269.500 348 C 268.125 349.864, 266.990 352.089, 266.978 352.944 C 266.966 353.800, 266.076 355.625, 265 357 C 263.924 358.375, 263.034 360.182, 263.022 361.015 C 263.010 361.848, 262.163 364.098, 261.140 366.015 C 260.117 367.932, 258.940 370.625, 258.525 372 C 258.110 373.375, 256.870 375.484, 255.769 376.688 C 254.652 377.910, 253.543 380.872, 253.259 383.398 C 252.837 387.135, 252.006 388.597, 248.474 391.812 C 244.304 395.607, 244.182 395.897, 243.530 403.601 C 243.163 407.946, 242.051 413.525, 241.059 416 C 240.067 418.475, 238.985 421.659, 238.653 423.075 C 237.845 426.525, 233.374 435.895, 231.055 439 C 229.497 441.084, 229.101 443.937, 228.669 456.154 C 228.296 466.701, 227.709 471.662, 226.575 473.855 C 225.700 475.546, 225 479.352, 225 482.413 C 225 485.445, 224.154 490.080, 223.119 492.713 C 221.698 496.332, 221.240 500.078, 221.244 508.068 C 221.251 520.056, 220.627 523, 218.082 523 C 216.549 523, 216.209 521.719, 215.650 513.846 C 214.594 498.978, 214.847 491.162, 216.464 488.695 C 217.584 486.985, 218.041 481.644, 218.408 465.980 C 218.672 454.716, 219.584 439.875, 220.435 433 C 221.286 426.125, 221.987 417.688, 221.991 414.250 C 221.999 408.701, 221.780 408, 220.035 408 C 217.506 408, 215.999 410.872, 216.003 415.684 C 216.004 417.783, 215.121 421.300, 214.040 423.500 C 210.689 430.320, 208.052 440.228, 209.077 442.144 C 209.585 443.093, 210 446.358, 210 449.401 C 210 454.156, 209.439 455.801, 206 461.121 C 203.800 464.525, 201.962 467.803, 201.916 468.405 C 201.869 469.007, 201.692 475.800, 201.523 483.500 C 201.353 491.200, 201.147 498.400, 201.064 499.500 C 200.981 500.600, 201.375 504.200, 201.941 507.500 C 204.077 519.960, 206.319 537.621, 206.162 540.750 C 206.073 542.538, 205.940 545.462, 205.866 547.250 C 205.793 549.038, 206.158 553.773, 206.678 557.774 C 207.418 563.471, 208.097 565.380, 209.811 566.580 C 211.376 567.677, 212.010 569.166, 212.034 571.807 C 212.053 573.838, 212.937 577.300, 214 579.500 C 215.063 581.700, 215.947 584.483, 215.966 585.685 C 215.985 586.887, 216.512 589.137, 217.137 590.685 C 219.070 595.471, 219.985 602.005, 220.532 614.930 C 220.956 624.923, 221.445 627.984, 223.029 630.548 C 224.113 632.301, 225 634.669, 225 635.809 C 225 636.949, 225.443 638.156, 225.984 638.490 C 227.442 639.391, 234 652.822, 234 654.906 C 234 655.894, 235.055 658.685, 236.343 661.109 C 237.632 663.533, 239.019 667.289, 239.426 669.455 C 239.832 671.621, 241.027 674.491, 242.082 675.832 C 243.137 677.173, 244 678.755, 244 679.349 C 244 679.942, 246.355 682.581, 249.234 685.214 C 253.268 688.903, 255.223 690, 257.765 690 C 259.991 690, 261.274 690.569, 261.714 691.750 C 262.072 692.712, 264.308 695.487, 266.683 697.915 C 271.147 702.480, 272.248 706.307, 269.410 707.396 C 268.535 707.732, 267.410 707.753, 266.910 707.444 C 265.690 706.690, 265.757 710.004, 267.036 713.674 C 267.679 715.517, 269.847 717.760, 272.740 719.574 C 278.622 723.262, 283.425 727.384, 298.757 741.897 C 305.499 748.279, 313.402 754.850, 316.319 756.500 C 319.236 758.150, 326.464 763.325, 332.380 768 C 338.296 772.675, 343.750 776.640, 344.501 776.810 C 346.443 777.252, 348.164 773.503, 347.406 770.481 C 346.669 767.544, 342.488 764.079, 335.999 761.025 C 333.525 759.861, 330.034 758.129, 328.242 757.175 C 323.230 754.509, 311.375 742.548, 301.308 730 C 299.764 728.075, 295.584 723.800, 292.020 720.500 C 283.780 712.870, 283.070 711.981, 283.032 709.250 C 282.989 706.247, 284.892 706.414, 289.600 709.828 C 296.488 714.822, 303.286 722.130, 315.982 738.186 C 323.960 748.276, 329.552 752.808, 339 756.840 C 346.519 760.050, 348.884 760.509, 349.419 758.864 C 349.663 758.114, 350.359 748.500, 350.965 737.500 C 351.571 726.500, 352.732 714.125, 353.545 710 C 354.358 705.875, 355.668 688.550, 356.456 671.500 C 357.244 654.450, 358.360 634.425, 358.935 627 C 359.510 619.575, 360.057 595.478, 360.152 573.452 L 360.324 533.404 356.172 526.295 C 352.374 519.791, 343.526 511, 340.779 511 C 338.825 511, 329.207 501.860, 324.697 495.717 C 317.817 486.346, 315.028 480.578, 312.261 470 C 308.963 457.395, 308.816 443.863, 311.850 432.333 C 313.033 427.842, 314 423.104, 314 421.806 C 314 420.507, 314.664 418.496, 315.477 417.337 C 316.289 416.178, 318.490 410.983, 320.369 405.793 C 324.148 395.353, 330.220 385.220, 339.245 374.294 C 349.116 362.343, 359.263 356.063, 368.769 356.022 C 379.286 355.978, 392.507 362.526, 400 371.491 C 401.375 373.136, 403.525 375.449, 404.777 376.631 C 407.362 379.070, 412.954 387.062, 412.982 388.356 C 412.992 388.826, 414.125 390.548, 415.500 392.182 C 416.875 393.816, 418 395.708, 418 396.387 C 418 397.065, 419.557 400.780, 421.460 404.643 C 428.668 419.274, 432.876 442.707, 431.067 458.133 C 429.931 467.814, 425.688 481.568, 422.912 484.564 C 421.860 485.700, 421 487.437, 421 488.426 C 421 492.695, 406.740 507.296, 397.552 512.434 C 385.401 519.229, 382.497 526.696, 381.578 553.500 C 381.168 565.456, 381.373 570.637, 382.390 574 C 383.421 577.409, 383.920 591.344, 384.450 631.500 C 384.955 669.792, 385.530 686.443, 386.520 691.500 C 387.274 695.350, 388.408 703, 389.039 708.500 C 389.671 714, 390.837 720.300, 391.631 722.500 C 393.144 726.698, 397.460 765.337, 398.611 785 C 399.466 799.606, 399.843 800.586, 405.205 802.128 C 407.567 802.807, 410.625 804.119, 412 805.043 C 413.375 805.967, 416.131 807.251, 418.125 807.898 C 420.119 808.544, 425.519 810.673, 430.125 812.629 C 440.160 816.890, 444.063 817.945, 449.921 817.976 C 452.692 817.991, 455.061 818.650, 456.267 819.741 C 458.105 821.405, 458.272 821.382, 460.006 819.241 C 461.004 818.009, 462.916 817, 464.255 817 C 466.760 817, 470 819.736, 470 821.850 C 470 823.650, 474.516 825.338, 477.397 824.615 C 478.797 824.264, 480.432 823.062, 481.030 821.944 C 481.628 820.827, 482.767 811.944, 483.560 802.206 C 484.354 792.468, 485.709 777.300, 486.573 768.500 C 487.436 759.700, 488.756 739.900, 489.507 724.500 C 490.257 709.100, 491.361 691.100, 491.959 684.500 C 493.227 670.524, 494.800 503.657, 493.873 481.490 C 493.282 467.334, 493.074 466.158, 490.147 460.353 C 486.673 453.466, 477.677 444.753, 472.114 442.890 C 470.252 442.266, 467.102 440.674, 465.114 439.352 C 460.777 436.467, 451.261 426.398, 450.446 423.831 C 450.127 422.824, 449.481 422, 449.011 422 C 447.880 422, 442.349 410.868, 441.454 406.789 C 441.066 405.024, 439.934 401.679, 438.938 399.356 C 435.918 392.310, 434.776 365.632, 436.504 342.500 C 437.284 332.050, 438.599 320.800, 439.426 317.500 C 440.252 314.200, 440.965 309.475, 441.008 307 C 441.052 304.525, 441.731 300.700, 442.517 298.500 C 443.302 296.300, 444.466 291.125, 445.103 287 C 445.739 282.875, 447.093 276.350, 448.111 272.500 C 449.129 268.650, 450.652 261.536, 451.496 256.691 C 452.340 251.847, 453.647 246.897, 454.401 245.691 C 456.029 243.090, 459.583 232.006, 460.444 226.851 C 461.429 220.950, 464.396 217.997, 469.323 218.015 C 474.419 218.034, 475.547 218.693, 477.028 222.520 C 478.454 226.203, 478.468 255.305, 477.048 262.765 C 476.226 267.084, 476.344 268.654, 477.705 271.507 C 479.314 274.883, 479.295 275.057, 477.053 277.444 C 474.798 279.844, 474.733 280.483, 474.308 304.201 C 474.068 317.566, 473.240 333.851, 472.468 340.391 C 471.111 351.883, 471.131 352.376, 473.072 355.101 C 474.176 356.652, 476.412 358.869, 478.040 360.028 C 479.668 361.188, 481 363.006, 481 364.068 C 481 366.257, 481.992 366.408, 487.091 364.991 C 489.458 364.334, 491.097 363.083, 491.900 361.320 C 492.682 359.605, 493.455 348.576, 494.056 330.573 C 494.572 315.133, 495.502 294.400, 496.123 284.500 C 496.744 274.600, 497.433 259.525, 497.654 251 C 498.236 228.589, 499.208 221.905, 502.513 217.572 C 504.874 214.477, 505.797 214, 509.432 214 C 512.719 214, 514.181 214.595, 516.191 216.750 C 522.013 222.992, 521.892 221.632, 523.963 304.500 C 524.673 332.909, 525.605 353.462, 526.319 356.461 C 527.236 360.311, 528.261 361.934, 530.898 363.711 C 536.038 367.174, 539.514 366.721, 544.264 361.971 L 548.293 357.943 547.606 336.221 C 547.228 324.275, 546.466 309.550, 545.913 303.500 C 544.399 286.964, 543.312 257.562, 543.521 238.843 C 543.682 224.510, 543.972 221.734, 545.604 218.948 C 548.238 214.452, 550.260 213.342, 553.299 214.727 C 556.540 216.203, 562 224.395, 562 227.781 C 562 230.288, 563.651 235.221, 568.097 246 C 569.117 248.475, 570.429 253.425, 571.012 257 C 571.594 260.575, 572.924 266.425, 573.967 270 C 575.010 273.575, 576.344 280.016, 576.930 284.313 C 577.517 288.611, 578.449 292.970, 579 294.001 C 579.552 295.032, 580.444 299.840, 580.982 304.687 C 581.520 309.534, 582.409 315.300, 582.959 317.500 C 584.787 324.819, 586.231 358.924, 585.535 378.318 C 584.838 397.716, 583.869 402.492, 578.594 412.500 C 577.724 414.150, 577.010 416.013, 577.006 416.640 C 577.003 417.267, 575.029 420.417, 572.620 423.640 C 564.800 434.103, 557.408 440.822, 551.853 442.518 C 550.559 442.913, 548.825 443.804, 548 444.498 C 547.175 445.191, 545.038 446.500, 543.250 447.405 C 541.462 448.311, 540 449.654, 540 450.391 C 540 451.128, 539.165 452.803, 538.145 454.115 C 537.125 455.427, 535.717 458.300, 535.015 460.500 C 534.313 462.700, 533.394 464.950, 532.972 465.500 C 531.394 467.559, 530.831 487.626, 532.019 499.500 C 532.679 506.100, 533.346 527.025, 533.500 546 C 533.654 564.975, 534.252 585.675, 534.830 592 C 535.408 598.325, 536.164 608.450, 536.511 614.500 C 536.858 620.550, 537.531 628.200, 538.006 631.500 C 538.481 634.800, 539.162 644.925, 539.519 654 C 539.876 663.075, 540.823 679.725, 541.624 691 C 542.424 702.275, 543.312 725.450, 543.595 742.500 C 543.919 762.007, 544.650 777.022, 545.565 783 C 546.695 790.374, 548.938 812.085, 548.991 816.156 C 549.007 817.354, 585.395 815.828, 587 814.562 C 590.659 811.675, 599.567 807.977, 605.278 806.975 C 608.700 806.374, 613.300 805.436, 615.500 804.889 C 617.700 804.342, 621.367 803.442, 623.649 802.888 C 630.220 801.293, 630.535 800.463, 631.826 781.334 C 632.464 771.893, 633.468 762.898, 634.059 761.346 C 634.649 759.793, 635.560 750.193, 636.083 740.012 C 636.607 729.830, 637.904 714.300, 638.966 705.500 C 640.028 696.700, 641.158 686.077, 641.477 681.893 C 641.796 677.710, 642.541 672.760, 643.131 670.893 C 644.751 665.772, 644.960 659.899, 646.054 588.500 C 646.664 548.714, 646.708 519.052, 646.165 513.818 L 645.264 505.135 638.882 498.459 C 635.372 494.787, 628.603 487.816, 623.841 482.967 C 615.037 474.005, 611.048 467.728, 608.290 458.500 C 607.468 455.750, 606.279 452.867, 605.648 452.093 C 603.956 450.019, 604.369 433.741, 606.328 425.306 C 607.247 421.350, 608.445 410.710, 608.990 401.661 C 609.536 392.613, 610.212 384.600, 610.493 383.855 C 610.775 383.110, 611.463 377.325, 612.023 371 C 614.520 342.805, 614.948 339.303, 616.308 336 C 617.101 334.075, 618.288 328, 618.946 322.500 C 620.269 311.442, 622.601 301.199, 624.249 299.205 C 624.952 298.354, 627.230 298.011, 630.885 298.205 C 638.868 298.628, 639.289 299.719, 638.515 318 C 638.177 325.975, 637.428 334.525, 636.851 337 C 636.273 339.475, 635.878 342.850, 635.974 344.500 C 636.319 350.472, 636.324 352.870, 636.041 376.237 C 635.790 396.912, 635.965 400.298, 637.399 402.487 C 639.533 405.743, 642.978 405.717, 646.076 402.421 L 648.500 399.841 649 350.831 L 649.500 301.822 651.861 299.911 C 654.412 297.846, 662.311 297.279, 664.984 298.969 C 666.638 300.015, 667.468 317.649, 668.301 369.500 C 668.811 401.186, 669.501 405.013, 674.699 404.985 C 681.910 404.945, 681.856 405.407, 680.839 352.265 C 680.342 326.286, 680.314 303.561, 680.776 301.765 C 681.558 298.732, 681.948 298.478, 686.275 298.197 C 688.836 298.030, 691.848 298.383, 692.968 298.983 C 696.126 300.673, 698.007 306.522, 699.077 317.986 C 699.617 323.769, 700.718 332.100, 701.523 336.500 C 702.329 340.900, 703.666 353.050, 704.494 363.500 C 705.322 373.950, 706.433 385.431, 706.962 389.013 C 707.492 392.595, 708.397 403.416, 708.974 413.059 C 709.550 422.702, 710.467 432.143, 711.011 434.039 C 712.591 439.549, 712.175 445.854, 709.548 456.211 C 705.516 472.107, 702.676 476.434, 688.500 488.288 C 680.307 495.138, 675.428 500.272, 673.420 504.155 C 671.869 507.154, 671.778 512.704, 672.302 572.459 C 672.637 610.744, 673.286 639.146, 673.879 641.500 C 674.433 643.700, 675.368 655.625, 675.956 668 C 676.545 680.375, 677.708 695.900, 678.539 702.500 C 679.371 709.100, 680.422 723.416, 680.875 734.314 C 681.783 756.150, 682.316 757.971, 687.245 756.097 C 688.670 755.555, 692.814 752.207, 696.453 748.656 C 700.093 745.105, 704.273 741.897, 705.743 741.528 C 708.867 740.744, 711.909 737.887, 716.514 731.410 C 719.475 727.244, 729.425 718.195, 737.423 712.393 C 739.617 710.801, 740.471 709.211, 740.914 705.893 C 741.413 702.155, 742.006 701.248, 744.893 699.806 C 751.398 696.558, 753.268 694.244, 752.537 690.347 C 751.736 686.076, 753.209 684, 757.041 684 C 760.912 684, 765.740 681.026, 767.071 677.822 C 767.682 676.349, 768.773 674.917, 769.494 674.641 C 770.215 674.364, 771.317 671.750, 771.943 668.832 C 772.568 665.914, 773.739 662.521, 774.544 661.292 C 775.755 659.445, 775.802 658.290, 774.821 654.620 C 773.544 649.845, 773.804 649.344, 782.430 640 C 783.699 638.625, 786.338 634.457, 788.295 630.738 C 791.429 624.781, 791.791 623.352, 791.332 618.738 C 790.971 615.116, 791.280 612.609, 792.333 610.612 C 793.742 607.939, 793.705 607.520, 791.831 604.985 C 788.177 600.043, 791.258 596.195, 796.586 599.046 C 800.172 600.965, 803.623 598.239, 804.505 592.789 C 804.887 590.430, 806.041 586.560, 807.070 584.189 C 808.100 581.817, 809.452 575.967, 810.076 571.189 C 810.700 566.410, 812.015 560.475, 812.998 558 C 815.301 552.200, 819 540.319, 819 538.721 C 819 538.041, 817.833 535.291, 816.406 532.611 C 814.485 529.003, 813.976 526.928, 814.447 524.619 C 814.796 522.903, 815.312 513.673, 815.592 504.107 C 816.011 489.849, 815.823 486.015, 814.551 482.837 C 813.698 480.704, 813 477.632, 813 476.011 C 813 474.389, 812.041 471.221, 810.868 468.971 C 809.067 465.517, 808.838 463.887, 809.391 458.485 C 809.752 454.967, 809.741 447.736, 809.367 442.416 C 808.728 433.331, 808.470 432.462, 805.120 428.121 C 802.296 424.462, 801.414 422.251, 800.882 417.500 C 799.658 406.563, 797.974 397.673, 796.876 396.351 C 796.280 395.633, 794.923 391.140, 793.859 386.367 C 791.874 377.456, 791.120 376.138, 782.302 366.156 C 777.577 360.807, 776 357.399, 776 352.534 C 776 350.125, 774.726 347.504, 771.415 343.099 C 768.894 339.745, 766.508 337, 766.115 337 C 765.226 337, 755.239 324.953, 748.327 315.543 C 745.483 311.669, 742.333 307.426, 741.327 306.114 C 739.377 303.568, 729.170 292.313, 727.500 290.867 C 724.711 288.452, 715.470 282.905, 713.350 282.373 C 712.019 282.039, 710.290 280.528, 709.508 279.015 C 708.725 277.502, 705.882 274.742, 703.189 272.882 C 693.108 265.920, 687.327 261.114, 681.388 254.761 C 678.027 251.165, 674.202 247.896, 672.888 247.496 C 671.575 247.097, 669.600 245.998, 668.500 245.055 C 667.400 244.112, 662 240.758, 656.500 237.602 C 651 234.446, 643.800 230.188, 640.500 228.140 C 637.200 226.091, 631.244 223.128, 627.265 221.555 C 620.725 218.969, 618.800 218.682, 607.203 218.570 L 594.375 218.446 588.971 214.473 C 583.907 210.749, 582.907 210.426, 573.034 209.324 C 567.240 208.678, 559.800 207.600, 556.500 206.930 C 552.830 206.184, 538.270 205.564, 519 205.332 C 489.064 204.973, 487.153 205.060, 480.500 207.095 C 476.650 208.272, 471.036 209.455, 468.023 209.724 C 464.796 210.011, 461.558 210.989, 460.139 212.106 C 458.814 213.148, 456.495 214, 454.984 214 C 453.474 214, 449.249 215.125, 445.596 216.500 C 441.943 217.875, 437.695 219, 436.155 219 C 434.616 219, 431.364 219.644, 428.928 220.430 C 426.493 221.217, 421.027 222.154, 416.781 222.513 C 409.472 223.130, 408.894 223.359, 405.892 226.832 C 404.148 228.850, 400.646 232.188, 398.110 234.251 C 395.575 236.314, 392.927 238.478, 392.228 239.061 C 391.528 239.644, 389.421 240.762, 387.546 241.545 C 385.671 242.329, 383.825 243.473, 383.445 244.089 C 383.065 244.705, 380.959 246.011, 378.767 246.993 C 375.672 248.379, 374.015 248.567, 371.360 247.834 C 368.556 247.060, 367.119 247.299, 363.382 249.166 C 358.156 251.776, 347.811 261.531, 345.472 266.054 C 344.081 268.743, 343.443 269.077, 340.203 268.807 C 336.009 268.458, 334.289 265.260, 337.801 264.342 C 338.888 264.058, 341.279 261.502, 343.116 258.663 C 347.092 252.515, 354.569 245, 356.710 245 C 357.549 245, 359.785 243.640, 361.678 241.978 C 364.945 239.109, 365.432 238.988, 371.310 239.587 C 376.685 240.135, 378.106 239.895, 382.104 237.766 C 387.273 235.013, 390.688 232.720, 395.333 228.885 C 398.917 225.925, 406.264 222, 408.220 222 C 408.934 222, 410.081 221.100, 410.768 220 C 411.455 218.900, 412.699 218, 413.533 218 C 414.368 218, 417.611 217.100, 420.740 216 C 423.870 214.900, 428.388 214, 430.780 214 C 433.172 214, 437.238 213.125, 439.815 212.056 C 442.392 210.986, 447.547 209.665, 451.270 209.119 C 459.591 207.899, 468.256 203.977, 473.309 199.143 C 477.103 195.514, 477.148 195.501, 485.323 195.685 C 489.836 195.787, 494.783 196.347, 496.316 196.930 C 499.632 198.191, 550.620 200.409, 577.500 200.462 L 596.500 200.500 601 203.399 C 603.475 204.994, 605.725 206.614, 606 207 C 607.986 209.785, 615.138 212.747, 621.004 213.213 C 625.126 213.541, 628.788 214.511, 631.004 215.861 C 632.927 217.034, 635.180 217.994, 636.011 217.996 C 636.843 217.998, 639.768 219.562, 642.511 221.471 C 645.255 223.380, 649.300 225.874, 651.500 227.014 C 655.912 229.299, 660.628 232.140, 666.586 236.104 C 668.739 237.536, 671.453 239.010, 672.618 239.379 C 673.783 239.749, 675.540 240.940, 676.523 242.026 C 677.702 243.328, 679.596 244, 682.088 244 C 684.858 244, 686.019 244.484, 686.441 245.815 C 686.758 246.813, 688.872 248.950, 691.140 250.565 C 693.407 252.179, 696.360 254.612, 697.702 255.972 C 700.936 259.250, 708.408 261.998, 714.089 261.999 C 719.662 262, 724.734 265.480, 727.938 271.500 C 732.134 279.386, 733.571 281.587, 738.500 287.690 C 746.903 298.093, 750 302.615, 750 304.480 C 750 306.486, 753.356 312.470, 756.181 315.500 C 757.206 316.600, 759.422 319.300, 761.105 321.500 C 762.787 323.700, 767.377 328.817, 771.303 332.871 C 778.362 340.161, 778.477 340.229, 781.664 339.077 C 785.731 337.606, 787.683 338.706, 791.041 344.360 C 794.675 350.477, 794.927 352.125, 792.786 355.725 C 790.445 359.662, 790.185 364.406, 792.182 366.753 C 795.138 370.226, 798.348 377.755, 802.520 391 C 804.859 398.425, 807.496 405.850, 808.380 407.500 C 809.264 409.150, 809.990 411.604, 809.994 412.952 C 809.997 414.301, 811.317 416.776, 812.927 418.452 C 816.127 421.784, 815.671 419.093, 819.376 456.500 C 820.193 464.750, 821.383 474.425, 822.020 478 C 822.657 481.575, 823.250 486.971, 823.339 489.991 L 823.500 495.482 827.888 496.412 C 831.668 497.214, 832.465 497.084, 833.638 495.480 C 834.387 494.456, 835 491.694, 835 489.344 C 835 485.977, 834.332 484.309, 831.855 481.488 C 828.833 478.045, 828.760 477.757, 829.983 474.052 C 831.818 468.493, 829.358 446.002, 826.425 441.526 C 825.638 440.325, 824.544 436.003, 823.994 431.921 C 823.003 424.572, 820.684 416.812, 818.047 412.018 C 817.296 410.653, 815.871 406.603, 814.882 403.018 C 813.892 399.433, 812.376 394.025, 811.513 391 C 810.650 387.975, 809.517 381.225, 808.997 376 C 807.888 364.869, 807.135 362.061, 803.628 356 C 802.196 353.525, 801.019 350.324, 801.012 348.888 C 801.005 347.451, 799.650 344.576, 798 342.500 C 796.350 340.424, 795 338.146, 795 337.439 C 795 336.732, 793.863 334.802, 792.473 333.151 C 791.083 331.499, 789.352 328.431, 788.626 326.333 C 787.591 323.344, 786.267 321.984, 782.507 320.049 C 777.910 317.684, 775.337 314.799, 770.119 306.162 C 768.809 303.994, 766.109 301.293, 764.119 300.159 C 755.394 295.190, 737.810 276.236, 727.253 260.421 C 724.728 256.640, 721.430 254.689, 712.729 251.833 C 708.963 250.597, 704.571 248.052, 700.828 244.937 C 697.566 242.222, 694.538 240, 694.101 240 C 693.664 240, 692.268 239.100, 691 238 C 689.732 236.900, 687.975 235.987, 687.097 235.972 C 686.219 235.956, 682.810 234.156, 679.521 231.972 C 676.233 229.787, 672.352 228, 670.896 228 C 668.747 228, 668.136 227.428, 667.641 224.956 C 666.899 221.244, 662.308 219, 655.455 219 C 651.610 219, 650.320 218.474, 647.673 215.824 C 644.009 212.157, 632.072 205.591, 627.113 204.515 C 623.350 203.699, 614.851 199.951, 612.683 198.152 C 611.914 197.513, 607.733 196.072, 603.392 194.948 C 596.919 193.272, 591.725 192.852, 574.500 192.610 C 549.865 192.265, 539.869 191.136, 535 188.153 C 531.673 186.113, 530.390 186.015, 509 186.154 C 496.625 186.234, 485.150 186.455, 483.500 186.645 M 342.632 192.115 C 341.320 193.988, 338.962 195.840, 334 198.894 C 330.402 201.109, 317.217 206.831, 314.251 207.464 C 312.464 207.846, 310.397 209.022, 309.658 210.079 C 306.733 214.254, 296.830 222, 294.417 222 C 292.665 222, 291.657 222.773, 290.936 224.669 C 290.378 226.136, 289.294 227.824, 288.527 228.419 C 287.761 229.013, 285.327 231.713, 283.119 234.419 C 280.732 237.342, 276.760 240.587, 273.325 242.419 C 269.973 244.206, 266.564 246.969, 265.206 249 C 263.918 250.925, 260.887 254.682, 258.469 257.348 C 256.051 260.014, 253.816 263.003, 253.503 263.990 C 253.190 264.976, 250.043 268.477, 246.509 271.769 C 239.970 277.860, 236.053 284.575, 234.637 292.119 C 234.270 294.078, 232.851 296.731, 231.485 298.014 C 230.118 299.298, 229 300.790, 229 301.330 C 229 301.870, 227.875 303.786, 226.500 305.589 C 225.125 307.392, 224 309.169, 224 309.539 C 224 309.909, 222.917 311.499, 221.593 313.072 C 220.269 314.646, 218.180 318.986, 216.951 322.717 C 215.722 326.447, 213.951 330.625, 213.015 332 C 212.079 333.375, 210.234 336.695, 208.916 339.377 C 207.598 342.059, 204.566 345.973, 202.178 348.074 C 198.563 351.257, 197.868 352.446, 198.020 355.197 C 198.403 362.127, 197.914 364.029, 194.850 367.518 C 191.907 370.869, 191.713 371.560, 191.901 377.993 C 192.089 384.431, 191.827 385.359, 187.897 392.191 C 185.141 396.982, 183.628 400.878, 183.504 403.500 C 183.401 405.700, 183.245 409.121, 183.158 411.102 C 183.070 413.112, 181.921 416.206, 180.560 418.102 C 174.275 426.853, 173.647 429.364, 173.926 444.616 L 174.184 458.733 170.981 461.013 L 167.779 463.294 168.132 490.897 C 168.327 506.079, 168.329 524.800, 168.137 532.500 C 167.857 543.728, 168.194 548.480, 169.842 556.500 C 170.971 562, 172.080 569.552, 172.304 573.282 C 172.616 578.466, 173.217 580.603, 174.856 582.347 C 176.648 584.254, 177 585.840, 177 591.999 C 177 596.052, 177.631 601.873, 178.402 604.934 C 180.352 612.674, 181.997 622.065, 182.015 625.560 C 182.039 630.232, 184.211 635.261, 188.239 639.966 C 190.291 642.363, 192.264 645.889, 192.622 647.800 C 192.981 649.711, 194.112 652.112, 195.137 653.137 C 196.162 654.162, 197 656.350, 197 658 C 197 659.650, 197.418 661, 197.929 661 C 198.440 661, 200.465 662.516, 202.429 664.368 C 204.825 666.628, 206 668.632, 206 670.460 C 206 671.958, 206.924 674.380, 208.054 675.842 C 215.245 685.150, 215.790 686.166, 216.457 691.501 C 216.898 695.030, 217.976 698.009, 219.446 699.760 C 220.711 701.267, 222.051 704.315, 222.424 706.532 C 222.812 708.836, 224.581 712.433, 226.551 714.923 C 228.448 717.320, 230 719.897, 230 720.649 C 230 722.413, 235.422 729.907, 238.009 731.719 C 239.104 732.486, 240 733.483, 240 733.936 C 240 736.462, 247.274 746.390, 250.193 747.849 C 252.011 748.757, 254.045 750.654, 254.715 752.065 C 256.071 754.923, 265.188 763, 267.058 763 C 267.718 763, 269.929 764.463, 271.972 766.250 C 277.662 771.228, 279.632 772.743, 284.040 775.525 C 288.841 778.556, 299.214 788.543, 300.893 791.750 C 301.540 792.987, 302.645 794, 303.348 794 C 304.051 794, 305.919 795.350, 307.500 797 C 309.505 799.093, 311.329 800, 313.532 800 C 315.420 800, 317.418 800.804, 318.500 802 C 319.495 803.100, 320.768 804, 321.327 804 C 321.887 804, 324.756 806.470, 327.704 809.489 C 330.651 812.508, 334.286 815.271, 335.781 815.630 C 337.277 815.988, 339.305 817.118, 340.289 818.141 C 342.826 820.777, 345.972 820.566, 346.111 817.750 C 346.317 813.564, 345.811 810.506, 344.686 809.136 C 343.124 807.233, 326.810 797.570, 319.140 794.004 C 316.703 792.871, 311.413 788.504, 307.140 784.098 C 302.938 779.764, 298.045 775.486, 296.266 774.592 C 294.487 773.697, 289.312 769.255, 284.766 764.721 C 280.220 760.186, 274.474 754.831, 271.998 752.821 C 269.521 750.810, 265.921 747.058, 263.998 744.482 C 262.074 741.906, 258.925 738.985, 257 737.991 C 252.375 735.602, 244 725.970, 244 723.040 C 244 722.468, 243.213 721.203, 242.250 720.228 C 238.844 716.779, 225.468 695.457, 222.234 688.321 C 221.280 686.217, 219.696 683.372, 218.712 681.998 C 213.726 675.031, 211.035 670.299, 211.018 668.473 C 211.008 667.357, 210.257 665.385, 209.350 664.089 C 204.917 657.760, 198.237 642.153, 196.090 633.110 C 195.619 631.125, 193.805 624.775, 192.060 619 C 186.413 600.314, 184.172 591.646, 183.051 584.154 C 182.447 580.114, 181.288 575.524, 180.476 573.954 C 179.516 572.097, 178.985 568.024, 178.956 562.300 C 178.928 556.733, 178.332 552.030, 177.333 549.500 C 174.930 543.414, 174.636 537.643, 176.352 530.228 C 177.988 523.155, 180.031 490.164, 179.833 474 C 179.752 467.389, 180.216 463.169, 181.358 460.124 C 182.261 457.718, 183 453.495, 183 450.740 C 183 447.986, 183.441 444.105, 183.980 442.116 C 184.519 440.127, 186.548 432.200, 188.489 424.500 C 192.640 408.031, 195.295 398.581, 196.866 394.685 C 197.489 393.137, 198 390.419, 198 388.646 C 198 386.873, 198.900 383.658, 200 381.500 C 201.100 379.342, 202 376.383, 202 374.923 C 202 373.464, 202.828 371.197, 203.839 369.885 C 204.851 368.573, 206.162 365.700, 206.753 363.500 C 209.812 352.116, 212.060 345.724, 213.928 343.101 C 215.067 341.501, 216 339.759, 216 339.230 C 216 338.702, 216.841 337.197, 217.870 335.885 C 218.898 334.573, 220.072 331.925, 220.478 330 C 220.884 328.075, 222.016 325.150, 222.994 323.500 C 223.972 321.850, 225.109 319.375, 225.521 318 C 225.933 316.625, 228.015 313.405, 230.148 310.845 C 232.282 308.285, 235.563 302.819, 237.441 298.699 C 239.319 294.579, 241.325 290.917, 241.900 290.562 C 242.475 290.206, 243.414 288.247, 243.987 286.208 C 244.672 283.769, 246.766 280.960, 250.105 278 C 252.897 275.525, 264.253 264.480, 275.341 253.457 C 286.428 242.433, 297.095 232.441, 299.044 231.252 C 300.993 230.064, 303.769 227.834, 305.212 226.296 C 307.623 223.727, 310.118 221.628, 323 211.331 C 325.475 209.353, 329.075 207.025, 331 206.159 C 332.925 205.292, 335.496 203.715, 336.713 202.653 C 337.929 201.591, 339.757 200.222, 340.774 199.611 C 350.204 193.945, 351.903 191.944, 348.418 190.607 C 345.659 189.548, 344.155 189.940, 342.632 192.115 M 753.412 197.368 C 752.406 199.989, 753.434 202.500, 755.514 202.500 C 757.052 202.500, 757.500 201.826, 757.500 199.514 C 757.500 196.242, 754.457 194.645, 753.412 197.368 M 217.893 211.497 C 214.601 213.287, 211.667 217.689, 212.434 219.689 C 212.950 221.034, 213.348 221.009, 215.760 219.479 C 219.896 216.855, 224 212.789, 224 211.313 C 224 209.616, 221.199 209.700, 217.893 211.497 M 189.500 254.378 C 187.619 255.769, 187.606 255.898, 189.293 256.552 C 191.453 257.389, 192.294 256.721, 191.838 254.528 C 191.537 253.076, 191.284 253.060, 189.500 254.378 M 326.390 271.608 C 325.561 273.593, 325.069 275.402, 325.296 275.630 C 325.524 275.857, 327.463 275.471, 329.605 274.772 C 332.725 273.753, 333.563 272.952, 333.816 270.750 C 334.102 268.270, 333.826 268, 331.015 268 C 328.380 268, 327.665 268.558, 326.390 271.608 M 136.311 273.632 C 135.966 274.530, 136.205 276.099, 136.842 277.119 C 138.577 279.897, 138.268 281.400, 135.413 284.076 C 131.487 287.754, 129.816 292.664, 130.181 299.452 L 130.500 305.405 127.049 306.117 C 121.146 307.336, 119.028 313.028, 123 317 C 125.694 319.694, 128.447 319.518, 130.821 316.500 C 134.209 312.194, 138.897 313.757, 146.537 321.738 C 150.118 325.479, 152.335 327, 154.206 327 C 157.834 327, 168 317.713, 168 314.400 C 168 311.435, 165.635 311.235, 163.268 314 C 160.776 316.910, 152 316.594, 152 313.594 C 152 312.938, 153.838 311.299, 156.084 309.951 C 164.139 305.117, 165.721 301.875, 164.467 292.762 C 163.526 285.920, 160.227 282.557, 153.474 281.558 C 148.495 280.822, 145 278.735, 145 276.500 C 145 272.912, 137.533 270.447, 136.311 273.632 M 590.250 274.708 C 588.462 275.364, 588.701 279, 590.531 279 C 592.342 279, 593.649 276.217, 592.383 275.058 C 591.897 274.614, 590.938 274.456, 590.250 274.708 M 902.362 323.500 C 901.569 325.564, 902.644 328, 904.346 328 C 906.348 328, 908.330 325.302, 907.643 323.513 C 906.894 321.559, 903.110 321.550, 902.362 323.500 M 854 333.441 C 854 334.234, 854.399 335.129, 854.887 335.430 C 855.988 336.111, 858.229 333.562, 857.325 332.658 C 856.135 331.468, 854 331.971, 854 333.441 M 134.009 395.290 C 129.029 397.809, 131.454 403.389, 137.275 402.804 C 141.823 402.347, 142.997 399.691, 140.042 396.545 C 137.289 393.614, 137.312 393.619, 134.009 395.290 M 937.552 442.250 C 937.967 446.238, 938.575 453.545, 938.903 458.489 C 939.395 465.895, 939.802 467.536, 941.214 467.806 C 942.348 468.022, 943.081 467.348, 943.377 465.816 C 943.624 464.542, 944.378 460.946, 945.054 457.825 C 946.647 450.471, 945.812 444.483, 942.727 441.138 C 941.388 439.687, 940.016 437.712, 939.678 436.750 C 939.340 435.788, 938.553 435, 937.930 435 C 937.121 435, 937.013 437.072, 937.552 442.250 M 911.550 458.523 C 907.891 463.321, 908.485 465.236, 913.967 466.320 C 917.935 467.105, 918.614 466.960, 920.210 464.990 C 922.545 462.105, 922.476 459.476, 920 457 C 917.086 454.086, 914.591 454.536, 911.550 458.523 M 136.667 456.667 C 136.300 457.033, 136 458.191, 136 459.240 C 136 461.965, 139.416 461.071, 139.820 458.240 C 140.127 456.083, 138.208 455.125, 136.667 456.667 M 902 458 C 902 459.333, 902.667 460, 904 460 C 905.333 460, 906 459.333, 906 458 C 906 456.667, 905.333 456, 904 456 C 902.667 456, 902 456.667, 902 458 M 928 467.393 C 928 469.155, 931.025 470.375, 932.280 469.120 C 932.800 468.600, 932.923 467.685, 932.554 467.087 C 931.580 465.511, 928 465.752, 928 467.393 M 139.655 468.829 C 137.202 471.539, 137.546 474, 140.378 474 C 143.413 474, 145.351 471.681, 144.515 469.048 C 143.710 466.511, 141.830 466.426, 139.655 468.829 M 921.563 473.801 C 920.625 476.757, 921.969 479.146, 924.377 478.803 C 927.472 478.361, 927.436 472.633, 924.336 472.192 C 922.908 471.988, 921.965 472.536, 921.563 473.801 M 101.455 476.455 C 98.242 479.667, 98.128 483.957, 101.250 484.111 C 108.457 484.465, 112 482.953, 112 479.522 C 112 476.913, 108.693 474, 105.732 474 C 104.729 474, 102.805 475.105, 101.455 476.455 M 933.582 481.915 C 929.761 485.903, 930.635 488.483, 935.538 487.688 C 937.616 487.350, 940.465 487.714, 942.543 488.583 C 947.029 490.457, 950.007 489.110, 949.985 485.215 C 949.961 481.063, 948.993 480.342, 942.462 479.618 C 936.682 478.977, 936.302 479.075, 933.582 481.915 M 104 494 C 104 494.550, 104.450 495, 105 495 C 105.550 495, 106 494.550, 106 494 C 106 493.450, 105.550 493, 105 493 C 104.450 493, 104 493.450, 104 494 M 862.252 497.344 C 861.840 497.980, 861.658 509.794, 861.849 523.598 C 862.181 547.678, 862.108 548.868, 860.043 552.916 C 858.389 556.158, 857.683 560.077, 856.996 569.818 C 856.291 579.815, 855.350 584.910, 852.551 593.879 C 850.598 600.137, 848.998 606.212, 848.996 607.379 C 848.994 608.546, 848.073 611.008, 846.950 612.851 C 844.222 617.325, 840.673 626.918, 838.571 635.500 C 835.854 646.591, 829.251 662.415, 827.031 663.158 C 826.468 663.346, 824.529 666.875, 822.722 671 C 820.914 675.125, 817.312 682.371, 814.718 687.101 C 812.123 691.832, 810 696.083, 810 696.548 C 810 697.012, 808.949 698.992, 807.664 700.946 C 806.379 702.901, 803.157 707.789, 800.504 711.809 C 797.851 715.829, 793.281 721.168, 790.348 723.674 C 786.717 726.776, 784.697 729.390, 784.017 731.865 C 782.525 737.298, 780.263 740.152, 772 747.023 C 764.383 753.358, 757.408 760.153, 750.829 767.649 C 748.826 769.932, 744.782 773.593, 741.844 775.787 C 738.905 777.980, 732.675 783.454, 728 787.951 C 718.856 796.746, 716.428 798.378, 711 799.376 C 709.075 799.730, 704.809 802.040, 701.520 804.510 C 698.230 806.979, 694.978 809, 694.293 809 C 692.517 809, 689.670 813.698, 690.359 815.492 C 691.254 817.825, 695.599 817.276, 698.655 814.444 C 700.595 812.646, 702.093 812.058, 703.703 812.462 C 705.414 812.891, 707.443 811.896, 711.746 808.519 C 714.911 806.034, 717.857 804.001, 718.294 804.001 C 719.254 804, 728.454 796.316, 736 789.212 C 739.025 786.365, 742.032 784.027, 742.682 784.018 C 744.210 783.995, 751.844 777.875, 758.369 771.441 C 766.254 763.666, 779.187 749.435, 780.255 747.358 C 780.780 746.336, 784.425 742.313, 788.355 738.419 C 798.116 728.744, 800.213 726.151, 802.052 721.477 C 802.922 719.264, 805.854 714.155, 808.567 710.124 C 814.329 701.564, 815.036 700.304, 818.156 693.045 C 819.445 690.045, 821.433 686.445, 822.574 685.045 C 823.715 683.645, 826.768 678.577, 829.359 673.782 C 831.950 668.988, 834.981 664.426, 836.095 663.646 C 837.210 662.865, 838.709 660.038, 839.428 657.363 C 840.828 652.149, 844.565 644.640, 847.815 640.508 C 849.948 637.796, 852.677 629.219, 855.293 617 C 856.177 612.875, 857.651 606.350, 858.570 602.500 C 859.489 598.650, 860.668 593.025, 861.191 590 C 861.714 586.975, 862.824 581.424, 863.658 577.664 C 864.492 573.904, 865.026 568.263, 864.846 565.128 C 864.580 560.519, 864.922 558.915, 866.631 556.742 C 868.617 554.217, 868.789 552.424, 869.483 526.968 C 870.183 501.246, 870.127 499.812, 868.360 498.504 C 865.656 496.502, 863.112 496.019, 862.252 497.344 M 122 501.051 C 122 504.716, 121.675 505.238, 118.588 506.528 C 115.970 507.622, 115.294 508.409, 115.686 509.908 C 116.507 513.045, 118.839 513.163, 122.032 510.230 C 123.666 508.729, 125.678 506.920, 126.502 506.211 C 129.420 503.699, 127.574 497, 123.965 497 C 122.335 497, 122 497.691, 122 501.051 M 942 500 C 942 501.100, 942.450 502, 943 502 C 943.550 502, 944 501.100, 944 500 C 944 498.900, 943.550 498, 943 498 C 942.450 498, 942 498.900, 942 500 M 105.944 502.844 C 101.818 506.186, 105.845 509.532, 111.418 507.393 C 114.700 506.134, 112.782 501, 109.029 501 C 108.585 501, 107.197 501.830, 105.944 502.844 M 942.682 505.652 C 941.412 506.922, 941.991 510, 943.500 510 C 944.325 510, 944.993 509.438, 944.985 508.750 C 944.962 506.888, 943.463 504.871, 942.682 505.652 M 828.571 518.571 C 827.535 519.608, 826.974 522.075, 826.925 525.821 C 826.741 539.706, 826.336 542.721, 824.183 546.204 C 822.982 548.147, 822.002 551.033, 822.004 552.618 C 822.007 554.203, 820.930 559.100, 819.612 563.500 C 818.293 567.900, 816.191 576, 814.940 581.500 C 812.484 592.294, 811.497 595.043, 806.498 605 C 801.560 614.838, 799.738 621.180, 800.941 624.344 C 801.950 626.999, 801.455 630, 800.007 630 C 798.364 630, 792.051 637.491, 791.472 640.128 C 791.137 641.650, 789.566 644.529, 787.981 646.524 C 786.395 648.520, 784.438 652.480, 783.632 655.326 C 782.826 658.172, 781.371 663.399, 780.398 666.943 C 779.195 671.321, 777.085 675.425, 773.809 679.753 C 771.158 683.255, 768.346 687.364, 767.560 688.885 C 765.978 691.942, 753.509 704, 751.928 704 C 751.378 704, 750.095 705.913, 749.076 708.250 C 747.913 710.919, 743.739 715.848, 737.859 721.500 C 725.690 733.195, 721.623 738.322, 721.351 742.310 C 721.231 744.065, 720.763 747.750, 720.310 750.500 C 719.531 755.230, 719.308 755.517, 716.182 755.818 C 713.288 756.096, 712.734 755.754, 711.720 753.068 C 709.653 747.593, 705.241 749.487, 693.787 760.765 C 685.528 768.897, 685 769.667, 685 773.583 C 685 775.875, 685.281 779.156, 685.625 780.875 C 686.155 783.527, 686.696 784, 689.199 784 C 692.112 784, 694.410 782.164, 717.500 761.394 C 720.250 758.920, 724.750 755.249, 727.500 753.237 C 730.250 751.224, 735.425 746.413, 739 742.545 C 742.575 738.677, 748.680 732.359, 752.566 728.506 C 756.452 724.653, 762.127 718.125, 765.178 714 C 768.229 709.875, 773.262 703.801, 776.363 700.501 C 779.463 697.202, 781.984 694.052, 781.965 693.501 C 781.945 692.951, 781.286 691.375, 780.500 690 C 778.397 686.321, 778.686 685, 781.596 685 C 785.733 685, 789.797 681.327, 793.592 674.158 C 795.530 670.496, 798.863 664.575, 800.998 661 C 803.133 657.425, 806.179 651.797, 807.767 648.493 C 809.355 645.189, 812.256 640.239, 814.214 637.493 C 816.587 634.166, 818.493 629.706, 819.927 624.124 C 821.111 619.517, 822.705 614.538, 823.469 613.060 C 824.233 611.582, 825.158 607.477, 825.524 603.936 C 826.396 595.510, 827.644 590.605, 830.470 584.500 C 832.584 579.934, 832.881 577.244, 833.896 553.500 C 835.489 516.189, 835.519 517, 832.571 517 C 831.236 517, 829.436 517.707, 828.571 518.571 M 85.011 519.487 C 83.522 521.280, 84.365 524, 86.410 524 C 88.416 524, 89.257 522.385, 88.497 519.991 C 87.744 517.619, 86.688 517.466, 85.011 519.487 M 893.394 540.416 C 893.095 541.194, 892.997 543.107, 893.175 544.666 C 893.415 546.753, 894.114 547.587, 895.832 547.830 C 900.214 548.451, 903.698 543.098, 900.800 540.200 C 899.143 538.543, 894.056 538.691, 893.394 540.416 M 221.028 556.466 C 220.045 557.651, 220.046 560.890, 221.030 572.228 C 222.334 587.234, 223.180 590.092, 227.405 593.743 C 229.465 595.525, 230 596.893, 230 600.388 C 230 603.900, 230.607 605.439, 233.010 608.011 C 236.328 611.563, 236.373 611.712, 237.876 624.312 C 238.675 631.009, 239.476 633.778, 241.214 635.846 C 242.471 637.342, 244.586 640.802, 245.912 643.533 C 247.239 646.265, 248.989 649.850, 249.801 651.500 C 250.613 653.150, 253.819 658.100, 256.924 662.500 C 260.030 666.900, 263.654 672.975, 264.977 676 C 266.301 679.025, 268.197 682.117, 269.192 682.872 C 270.186 683.627, 271 685.068, 271 686.075 C 271 687.082, 271.521 689.049, 272.157 690.445 C 273.055 692.417, 273.614 692.735, 274.657 691.870 C 276.606 690.252, 276.303 685.584, 274.120 683.609 C 273.087 682.673, 271.957 680.135, 271.611 677.969 C 271.030 674.333, 260.327 652.436, 257.452 649 C 256.762 648.175, 254.763 644.350, 253.010 640.500 C 251.256 636.650, 248.512 630.745, 246.911 627.377 C 244.699 622.725, 244 619.812, 244 615.250 C 244 611.020, 243.537 608.861, 242.434 607.945 C 240.117 606.023, 238 601.470, 238 598.411 C 238 596.666, 236.598 594.203, 234 591.384 C 230.317 587.388, 230 586.597, 230 581.390 C 230 577.480, 229.383 574.737, 227.998 572.497 C 226.897 570.716, 225.708 566.502, 225.356 563.134 C 224.658 556.452, 223.070 554.006, 221.028 556.466 M 937.634 557.187 C 937.441 557.909, 936.769 560.107, 936.141 562.071 C 934.573 566.978, 934.699 568, 936.875 568 C 938.767 568, 940 564.620, 940 559.434 C 940 556.856, 938.185 555.131, 937.634 557.187 M 89.409 569.377 C 89.118 570.134, 89.020 572.947, 89.190 575.627 C 89.414 579.154, 89.914 580.500, 91 580.500 C 92.871 580.500, 94.532 574.256, 93.624 570.637 C 92.923 567.845, 90.298 567.060, 89.409 569.377 M 931.229 590.171 C 930.553 590.847, 930 592.003, 930 592.740 C 930 593.478, 929.145 595.300, 928.100 596.790 C 927.054 598.281, 925.917 601.460, 925.571 603.855 C 925.225 606.250, 924.315 609.423, 923.548 610.906 C 922.782 612.389, 921.659 618.043, 921.054 623.471 C 920.327 629.986, 919.282 634.426, 917.977 636.538 C 916.890 638.297, 915.986 641.258, 915.968 643.118 C 915.951 644.978, 915.334 647.294, 914.597 648.264 C 912.553 650.958, 913.984 656.415, 916.842 656.827 C 918.089 657.006, 919.760 656.614, 920.555 655.954 C 922.126 654.651, 922.462 650.276, 921.150 648.208 C 920.217 646.737, 921.943 638.982, 923.670 636.890 C 924.300 636.125, 925.588 631.225, 926.530 626 C 927.473 620.775, 928.899 614.925, 929.699 613 C 930.507 611.057, 931.150 606.367, 931.146 602.457 C 931.139 596.176, 931.374 595.311, 933.319 594.457 C 935.804 593.366, 936.271 589.676, 933.979 589.235 C 933.143 589.073, 931.905 589.495, 931.229 590.171 M 227 613.319 C 227 615.185, 228.631 616.406, 229.420 615.130 C 229.727 614.633, 229.308 613.671, 228.489 612.991 C 227.278 611.986, 227 612.047, 227 613.319 M 104 641.500 C 104 643.189, 104.458 644.014, 105.250 643.750 C 105.938 643.521, 106.500 642.508, 106.500 641.500 C 106.500 640.492, 105.938 639.479, 105.250 639.250 C 104.458 638.986, 104 639.811, 104 641.500 M 118.298 674.667 C 117.960 675.546, 118.301 677.218, 119.054 678.382 C 119.807 679.547, 120.666 682.745, 120.962 685.490 C 121.376 689.330, 121.933 690.562, 123.380 690.838 C 125.825 691.305, 126.966 689.390, 126.985 684.789 C 126.997 681.768, 126.247 680.332, 122.955 677.073 C 119.698 673.848, 118.792 673.380, 118.298 674.667 M 126.667 693.667 C 125.235 695.098, 126.041 699.952, 127.873 700.932 C 128.912 701.488, 130.249 703.932, 130.876 706.421 C 131.497 708.889, 133.467 712.991, 135.253 715.537 C 137.039 718.083, 139.175 721.423, 140 722.959 C 140.825 724.495, 142.963 726.973, 144.750 728.465 C 147.696 730.924, 148 730.997, 148 729.243 C 148 727.414, 145.980 722.303, 143.952 719 C 141.441 714.910, 137.256 706.157, 136.642 703.709 C 135.974 701.048, 129.517 693, 128.050 693 C 127.656 693, 127.033 693.300, 126.667 693.667 M 881.229 700.669 C 878.908 701.603, 876.931 706.688, 877.899 709.235 C 879.594 713.692, 881.382 714.312, 885.650 711.923 C 891.781 708.492, 892.437 706.346, 888.545 702.455 C 886.196 700.105, 883.977 699.564, 881.229 700.669 M 724.625 704.517 C 722.616 706.527, 722.610 706.998, 724.557 709.777 C 726.819 713.007, 731.675 712.808, 733.217 709.422 C 734.048 707.599, 734.085 706.355, 733.345 705.172 C 731.912 702.883, 726.655 702.488, 724.625 704.517 M 814.400 748.400 C 810.330 752.470, 810.183 754.241, 813.551 758.656 C 816.881 763.022, 822.270 763.326, 826.923 759.411 C 831.863 755.254, 831.029 750.076, 824.917 746.957 C 819.674 744.283, 818.333 744.467, 814.400 748.400 M 168.398 767.166 C 167.983 767.836, 168.751 769.217, 170.204 770.416 C 171.593 771.562, 173.021 773.725, 173.377 775.221 C 174.097 778.249, 177.659 780.741, 179.145 779.255 C 180.601 777.799, 178.355 773.119, 175.597 771.862 C 174.253 771.250, 172.886 769.681, 172.558 768.375 C 171.929 765.870, 169.614 765.198, 168.398 767.166 M 829.104 770.914 C 827.019 772.235, 828.579 775, 831.410 775 C 834.438 775, 835.584 773.409, 833.964 771.456 C 832.589 769.799, 831.123 769.636, 829.104 770.914 M 113 773.059 C 113 773.641, 113.450 773.840, 114 773.500 C 114.550 773.160, 115 772.684, 115 772.441 C 115 772.198, 114.550 772, 114 772 C 113.450 772, 113 772.477, 113 773.059 M 837.042 780.449 C 835.224 782.640, 837.500 785.197, 840.914 784.801 C 842.926 784.567, 843.500 783.945, 843.500 782 C 843.500 780.055, 842.926 779.433, 840.914 779.199 C 839.476 779.032, 837.758 779.587, 837.042 780.449 M 814.270 783.703 C 813.043 783.940, 811.131 785.289, 810.020 786.702 C 805.693 792.203, 808.780 799.400, 815.466 799.400 C 822.455 799.400, 825.668 790.577, 820.545 785.455 C 819.195 784.105, 817.733 783.061, 817.295 783.136 C 816.858 783.211, 815.496 783.466, 814.270 783.703 M 230.638 802.500 C 230.006 804.148, 230.810 807, 231.907 807 C 233.712 807, 234.866 804.618, 233.918 802.847 C 232.722 800.611, 231.416 800.473, 230.638 802.500 M 400 811.453 C 400 816.427, 402.099 818.698, 411.356 823.741 C 421.002 828.996, 429.279 831.563, 433.789 830.699 C 435.417 830.387, 438.297 831.012, 441 832.264 C 445.296 834.253, 449.816 834.764, 476.477 836.275 C 479.574 836.450, 480.530 836.113, 480.800 834.753 C 481.318 832.133, 477.122 831, 466.900 831 C 460.669 831, 457.241 830.549, 455.673 829.522 C 454.274 828.605, 450.013 827.879, 444.459 827.611 C 432.783 827.047, 429.041 826.217, 426 823.515 C 420.803 818.898, 403.487 809, 400.607 809 C 400.273 809, 400 810.104, 400 811.453 M 623.324 810.486 C 622.157 811.303, 617.894 812.461, 613.851 813.060 C 609.808 813.658, 603.511 814.790, 599.857 815.574 C 596.203 816.358, 591.964 817, 590.436 817 C 588.908 817, 586.867 817.716, 585.900 818.590 C 584.884 819.510, 580.949 820.565, 576.571 821.090 C 572.407 821.591, 565.519 822.420, 561.264 822.933 C 552.957 823.934, 549.588 826.194, 550.203 830.352 C 550.479 832.220, 551.400 832.395, 563 832.780 C 588.345 833.621, 595.902 833.356, 598 831.552 C 598.825 830.843, 601.430 830.019, 603.789 829.721 C 606.148 829.424, 608.788 828.591, 609.655 827.871 C 611.193 826.595, 612.707 825.938, 622 822.516 C 627.519 820.483, 630.916 816.593, 630.964 812.250 C 630.996 809.355, 630.697 809, 628.223 809 C 626.695 809, 624.490 809.669, 623.324 810.486 M 238.039 830.189 C 235.343 833.083, 235.467 834.435, 238.657 836.945 C 240.998 838.786, 241.564 838.871, 243.407 837.654 C 245.834 836.053, 246.684 831.529, 244.950 829.440 C 243.225 827.361, 240.386 827.669, 238.039 830.189 M 283.575 839.918 C 279.879 844.001, 284.757 850.852, 290.358 849.446 C 292.808 848.831, 296 844.687, 296 842.121 C 296 838.104, 286.708 836.456, 283.575 839.918 M 266.871 841.383 C 266.241 842.766, 264.780 844.033, 263.623 844.198 C 262.467 844.364, 261.370 845.288, 261.187 846.250 C 260.761 848.487, 265.511 848.716, 266.362 846.500 C 266.678 845.675, 267.964 844.993, 269.219 844.985 C 274.587 844.949, 275.950 839.785, 270.750 839.184 C 268.637 838.940, 267.757 839.439, 266.871 841.383 M 625.861 841.908 C 623.309 842.906, 617.909 843.937, 613.861 844.199 C 609.409 844.487, 604.567 845.533, 601.609 846.844 C 598.919 848.036, 593.519 849.297, 589.609 849.645 C 585.699 849.993, 581.297 850.884, 579.827 851.625 C 578.357 852.366, 573.857 853.264, 569.827 853.622 C 565.797 853.980, 562.050 854.584, 561.500 854.964 C 560.950 855.344, 558.362 856.446, 555.748 857.411 C 550.628 859.303, 548.656 862.676, 551.011 865.513 C 552.610 867.440, 554.313 867.352, 561 865 C 564.852 863.645, 569.235 863.056, 575.628 863.033 C 582.294 863.009, 585.075 862.614, 585.943 861.569 C 586.596 860.782, 589.389 859.653, 592.150 859.061 C 594.911 858.469, 599.084 856.863, 601.423 855.492 C 603.762 854.122, 606.865 853, 608.319 853 C 611.591 853, 623.800 851.099, 630.500 849.546 C 634.756 848.559, 635.545 848.004, 635.804 845.819 C 636.115 843.198, 633.802 839.962, 631.679 840.047 C 631.030 840.073, 628.412 840.910, 625.861 841.908 M 235.911 853.871 C 233.660 855.694, 233.646 855.810, 235.359 858.425 C 237.713 862.017, 239.513 862.549, 242.561 860.552 C 246.013 858.290, 246.586 856.305, 244.466 853.963 C 242.229 851.491, 238.895 851.455, 235.911 853.871 M 771.622 856.475 C 770.123 857.864, 767.942 859, 766.774 859 C 765.520 859, 761.749 861.763, 757.561 865.750 C 753.662 869.462, 748.804 873.961, 746.766 875.747 C 744.440 877.785, 743.275 879.553, 743.637 880.497 C 744.741 883.373, 747.896 881.910, 755.586 874.956 C 760.889 870.160, 764.158 868.054, 768.759 866.469 C 771.945 865.372, 772.452 864.797, 772.179 862.593 C 771.927 860.566, 772.431 859.786, 774.502 858.999 C 776.165 858.367, 777.026 857.377, 776.823 856.330 C 776.312 853.697, 774.567 853.745, 771.622 856.475 M 260.250 856.220 C 255.581 858.472, 258.770 864.267, 265.896 866.483 C 268.062 867.156, 268.225 867, 267.594 864.864 C 267.210 863.564, 266.635 860.813, 266.316 858.750 C 265.698 854.748, 264.413 854.213, 260.250 856.220 M 433.031 864.637 C 433.048 865.111, 435.047 866.995, 437.473 868.822 C 442.225 872.401, 447.215 872.915, 447.789 869.884 C 448.004 868.748, 446.671 867.759, 443.297 866.551 C 437.045 864.313, 432.992 863.558, 433.031 864.637 M 715.250 876.731 C 713.739 877.258, 713.577 882.620, 715.044 883.527 C 716.614 884.498, 719 882.060, 719 879.485 C 719 877.133, 717.421 875.974, 715.250 876.731 M 730.437 887.102 C 730.062 887.708, 728.348 888.857, 726.628 889.655 C 724.908 890.453, 721.025 892.633, 718 894.499 C 711.788 898.331, 691.548 908.493, 688.500 909.309 C 681.246 911.253, 676.500 913.720, 676.500 915.547 C 676.500 918.455, 683.028 918.764, 687.399 916.062 C 689.235 914.928, 691.583 913.998, 692.618 913.996 C 693.653 913.994, 695.973 913.094, 697.774 911.996 C 699.575 910.898, 701.721 910, 702.543 910 C 703.918 910, 708.906 907.730, 718.136 902.902 C 722.854 900.434, 734 889.690, 734 887.610 C 734 885.787, 731.472 885.427, 730.437 887.102 M 314.523 890.964 C 314.195 891.493, 314.956 892.879, 316.214 894.043 C 317.471 895.206, 320.075 897.673, 322 899.523 C 325.606 902.990, 337.714 909, 341.093 909 C 342.142 909, 343 908.401, 343 907.668 C 343 906.267, 334.991 900.700, 331.392 899.600 C 330.233 899.245, 327.241 896.940, 324.742 894.478 C 320.332 890.130, 315.966 888.628, 314.523 890.964 M 344 909.814 C 344 911.396, 346.799 913.185, 348.702 912.819 C 351.850 912.213, 350.776 909.527, 347.250 909.187 C 345.462 909.014, 344 909.297, 344 909.814 M 357 923.919 C 357 925.301, 358.323 926.634, 361.097 928.049 C 363.350 929.199, 365.443 929.891, 365.746 929.587 C 366.050 929.283, 365.880 927.564, 365.368 925.767 C 364.557 922.922, 363.956 922.460, 360.718 922.190 C 357.541 921.924, 357 922.176, 357 923.919 M 374 923.453 C 374 924.752, 379.468 926.979, 382.693 926.994 C 383.350 926.997, 384.475 927.788, 385.193 928.750 C 386.864 930.987, 396.147 934.983, 402.095 936.025 C 404.622 936.468, 409.122 937.558, 412.095 938.447 C 415.068 939.337, 421.763 940.349, 426.973 940.698 C 433.667 941.145, 437.413 941.901, 439.739 943.274 C 442.145 944.693, 443.971 945.040, 446.516 944.563 C 451.188 943.687, 450.908 942.339, 445.750 940.870 C 443.413 940.205, 440.600 938.895, 439.500 937.960 C 438.035 936.715, 434.743 936.089, 427.202 935.622 C 420.385 935.199, 416.083 934.445, 414.473 933.390 C 413.135 932.514, 410.126 931.366, 407.785 930.840 C 405.445 930.314, 402.750 929.179, 401.797 928.316 C 400.844 927.454, 397.238 926.401, 393.782 925.977 C 390.327 925.552, 385.700 924.504, 383.500 923.646 C 378.320 921.628, 374 921.540, 374 923.453 M 674.380 938.452 C 673.683 940.267, 674.695 942, 676.452 942 C 677.968 942, 679.292 939.282, 678.444 937.910 C 677.570 936.495, 674.999 936.839, 674.380 938.452 M 594.237 943.954 C 592.992 944.993, 591.417 946.068, 590.737 946.345 C 588.698 947.174, 592.190 949.046, 594.500 948.362 C 596.759 947.694, 601 944.081, 601 942.826 C 601 941.301, 596.522 942.048, 594.237 943.954 M 532.500 946.022 C 530.850 946.406, 526.872 946.490, 523.661 946.208 C 517.957 945.708, 517.829 945.752, 518.161 948.089 C 518.534 950.723, 521.009 952.208, 528.251 954.145 C 532.956 955.403, 533.001 955.392, 536.433 952.065 C 539.361 949.227, 540.399 948.803, 543.278 949.270 C 547.280 949.920, 549.531 948.825, 548.691 946.638 C 548.227 945.428, 546.664 945.102, 541.795 945.198 C 538.333 945.267, 534.150 945.637, 532.500 946.022 M 576.500 947 C 576.160 947.550, 576.809 948, 577.941 948 C 579.073 948, 580 947.550, 580 947 C 580 946.450, 579.352 946, 578.559 946 C 577.766 946, 576.840 946.450, 576.500 947 M 580.500 971 C 580.840 971.550, 581.541 972, 582.059 972 C 582.577 972, 583 971.550, 583 971 C 583 970.450, 582.298 970, 581.441 970 C 580.584 970, 580.160 970.450, 580.500 971" stroke="none" fill="black" fill-rule="evenodd"/>
</svg>